<svg width="17" height="16" viewBox="0 0 17 16" fill="none" xmlns="http://www.w3.org/2000/svg">
<path d="M16.0942 1.25V12.2188C16.0942 12.4425 16.0053 12.6571 15.8471 12.8154C15.6889 12.9736 15.4742 13.0625 15.2505 13.0625C15.0267 13.0625 14.8121 12.9736 14.6538 12.8154C14.4956 12.6571 14.4067 12.4425 14.4067 12.2188V3.2866L2.34742 15.347C2.1891 15.5053 1.97437 15.5942 1.75047 15.5942C1.52657 15.5942 1.31184 15.5053 1.15352 15.347C0.995194 15.1886 0.90625 14.9739 0.90625 14.75C0.90625 14.5261 0.995194 14.3114 1.15352 14.153L13.2139 2.09375L4.28172 2.09375C4.05794 2.09375 3.84333 2.00485 3.6851 1.84662C3.52686 1.68839 3.43797 1.47378 3.43797 1.25C3.43797 1.02622 3.52686 0.811613 3.6851 0.653379C3.84333 0.495145 4.05794 0.40625 4.28172 0.40625L15.2505 0.40625C15.4742 0.40625 15.6889 0.495145 15.8471 0.653379C16.0053 0.811613 16.0942 1.02622 16.0942 1.25Z" fill="#40455C"/>
</svg>
