<svg width="36" height="36" viewBox="0 0 36 36" fill="none" xmlns="http://www.w3.org/2000/svg">
<rect x="0.312012" y="0.406006" width="35.188" height="35.188" rx="17.594" fill="#40455C"/>
<path d="M25.5 11.2498V22.2185C25.5 22.4423 25.4111 22.6569 25.2529 22.8151C25.0946 22.9734 24.88 23.0623 24.6562 23.0623C24.4325 23.0623 24.2178 22.9734 24.0596 22.8151C23.9014 22.6569 23.8125 22.4423 23.8125 22.2185V13.2864L11.7532 25.3467C11.5949 25.505 11.3801 25.594 11.1562 25.594C10.9323 25.594 10.7176 25.505 10.5593 25.3467C10.401 25.1884 10.312 24.9737 10.312 24.7498C10.312 24.5259 10.401 24.3111 10.5593 24.1528L22.6196 12.0935H13.6875C13.4637 12.0935 13.2491 12.0046 13.0909 11.8464C12.9326 11.6881 12.8437 11.4735 12.8437 11.2498C12.8437 11.026 12.9326 10.8114 13.0909 10.6531C13.2491 10.4949 13.4637 10.406 13.6875 10.406H24.6562C24.88 10.406 25.0946 10.4949 25.2529 10.6531C25.4111 10.8114 25.5 11.026 25.5 11.2498Z" fill="white"/>
</svg>
