<svg width="100" height="100" viewBox="0 0 100 100" fill="none" xmlns="http://www.w3.org/2000/svg">
<path d="M54.1666 91.6667H20.8333C12.4999 91.6667 8.33325 87.5 8.33325 79.1667V45.8333C8.33325 37.5 12.4999 33.3333 20.8333 33.3333H41.6666V79.1667C41.6666 87.5 45.8333 91.6667 54.1666 91.6667Z" stroke="#077C93" stroke-width="3" stroke-miterlimit="10" stroke-linecap="round" stroke-linejoin="round"/>
<path d="M42.1249 16.6667C41.7915 17.9167 41.6666 19.2917 41.6666 20.8333V33.3333H20.8333V25C20.8333 20.4167 24.5833 16.6667 29.1666 16.6667H42.1249Z" stroke="#077C93" stroke-width="3" stroke-miterlimit="10" stroke-linecap="round" stroke-linejoin="round"/>
<path d="M58.3333 33.3333V54.1667" stroke="#077C93" stroke-width="3" stroke-miterlimit="10" stroke-linecap="round" stroke-linejoin="round"/>
<path d="M75 33.3333V54.1667" stroke="#077C93" stroke-width="3" stroke-miterlimit="10" stroke-linecap="round" stroke-linejoin="round"/>
<path d="M70.8333 70.8333H62.4999C60.2083 70.8333 58.3333 72.7083 58.3333 75V91.6667H74.9999V75C74.9999 72.7083 73.1249 70.8333 70.8333 70.8333Z" stroke="#077C93" stroke-width="3" stroke-miterlimit="10" stroke-linecap="round" stroke-linejoin="round"/>
<path d="M25 54.1667V70.8333" stroke="#077C93" stroke-width="3" stroke-miterlimit="10" stroke-linecap="round" stroke-linejoin="round"/>
<path d="M41.6667 79.1667V20.8333C41.6667 12.5 45.8334 8.33334 54.1667 8.33334H79.1667C87.5001 8.33334 91.6667 12.5 91.6667 20.8333V79.1667C91.6667 87.5 87.5001 91.6667 79.1667 91.6667H54.1667C45.8334 91.6667 41.6667 87.5 41.6667 79.1667Z" stroke="#077C93" stroke-width="3" stroke-miterlimit="10" stroke-linecap="round" stroke-linejoin="round"/>
</svg>
