<svg width="132" height="132" viewBox="0 0 132 132" fill="none" xmlns="http://www.w3.org/2000/svg">
<g filter="url(#filter0_d_216_3869)">
<rect x="25" y="21" width="81.9999" height="82" rx="41" fill="#5F499F" shape-rendering="crispEdges"/>
<path d="M66.1788 78.992C63.1612 78.992 60.652 78.4344 58.6512 77.3192C56.6832 76.204 55.1908 74.646 54.174 72.6452C53.1572 70.6444 52.5996 68.3156 52.5012 65.6588C52.4684 64.314 52.452 62.8708 52.452 61.3292C52.452 59.7876 52.4684 58.3116 52.5012 56.9012C52.5996 54.2444 53.1572 51.9156 54.174 49.9148C55.1908 47.914 56.6832 46.356 58.6512 45.2408C60.652 44.1256 63.1612 43.568 66.1788 43.568C68.442 43.568 70.4264 43.8796 72.132 44.5028C73.8376 45.126 75.248 45.9624 76.3632 47.012C77.5112 48.0616 78.3804 49.2424 78.9708 50.5544C79.5612 51.8336 79.8892 53.162 79.9548 54.5396C79.9876 54.8348 79.8892 55.0808 79.6596 55.2776C79.4628 55.4744 79.2168 55.5728 78.9216 55.5728H76.2156C75.9204 55.5728 75.658 55.4908 75.4284 55.3268C75.2316 55.1628 75.084 54.8676 74.9856 54.4412C74.428 51.8828 73.3784 50.128 71.8368 49.1768C70.328 48.2256 68.4256 47.75 66.1296 47.75C63.5056 47.75 61.4228 48.5044 59.8812 50.0132C58.3396 51.4892 57.5032 53.8672 57.372 57.1472C57.2736 59.8368 57.2736 62.592 57.372 65.4128C57.5032 68.6928 58.3396 71.0872 59.8812 72.596C61.4228 74.072 63.5056 74.81 66.1296 74.81C68.4256 74.81 70.328 74.3344 71.8368 73.3832C73.3784 72.432 74.428 70.6772 74.9856 68.1188C75.084 67.6924 75.2316 67.3972 75.4284 67.2332C75.658 67.0692 75.9204 66.9872 76.2156 66.9872H78.9216C79.2168 66.9872 79.4628 67.0856 79.6596 67.2824C79.8892 67.4792 79.9876 67.7252 79.9548 68.0204C79.8892 69.398 79.5612 70.7428 78.9708 72.0548C78.3804 73.334 77.5112 74.4984 76.3632 75.548C75.248 76.5976 73.8376 77.434 72.132 78.0572C70.4264 78.6804 68.442 78.992 66.1788 78.992Z" fill="white"/>
</g>
<defs>
<filter id="filter0_d_216_3869" x="0.400009" y="0.500008" width="131.2" height="131.2" filterUnits="userSpaceOnUse" color-interpolation-filters="sRGB">
<feFlood flood-opacity="0" result="BackgroundImageFix"/>
<feColorMatrix in="SourceAlpha" type="matrix" values="0 0 0 0 0 0 0 0 0 0 0 0 0 0 0 0 0 0 127 0" result="hardAlpha"/>
<feOffset dy="4.1"/>
<feGaussianBlur stdDeviation="12.3"/>
<feComposite in2="hardAlpha" operator="out"/>
<feColorMatrix type="matrix" values="0 0 0 0 0 0 0 0 0 0 0 0 0 0 0 0 0 0 0.25 0"/>
<feBlend mode="normal" in2="BackgroundImageFix" result="effect1_dropShadow_216_3869"/>
<feBlend mode="normal" in="SourceGraphic" in2="effect1_dropShadow_216_3869" result="shape"/>
</filter>
</defs>
</svg>
