<svg width="100" height="100" viewBox="0 0 100 100" fill="none" xmlns="http://www.w3.org/2000/svg">
<path d="M91.6667 62.5C91.6667 78.625 78.625 91.6667 62.5 91.6667L66.875 84.375" stroke="#40455C" stroke-width="3" stroke-linecap="round" stroke-linejoin="round"/>
<path d="M8.33301 37.4999C8.33301 21.3749 21.3747 8.33325 37.4997 8.33325L33.1247 15.6249" stroke="#40455C" stroke-width="3" stroke-linecap="round" stroke-linejoin="round"/>
<path d="M57.083 18.5417L73.6663 28.125L90.083 18.5835" stroke="#40455C" stroke-width="3" stroke-linecap="round" stroke-linejoin="round"/>
<path d="M73.666 45.0833V28.0833" stroke="#40455C" stroke-width="3" stroke-linecap="round" stroke-linejoin="round"/>
<path d="M69.75 9.20825L59.75 14.7497C57.5 15.9997 55.625 19.1664 55.625 21.7497V32.3332C55.625 34.9165 57.4583 38.0832 59.75 39.3332L69.75 44.8749C71.875 46.0832 75.375 46.0832 77.5416 44.8749L87.5416 39.3332C89.7916 38.0832 91.6666 34.9165 91.6666 32.3332V21.7497C91.6666 19.1664 89.8333 15.9997 87.5416 14.7497L77.5416 9.20825C75.4166 8.04159 71.9167 8.04159 69.75 9.20825Z" stroke="#40455C" stroke-width="3" stroke-linecap="round" stroke-linejoin="round"/>
<path d="M9.79102 64.3752L26.3327 73.9585L42.791 64.417" stroke="#40455C" stroke-width="3" stroke-linecap="round" stroke-linejoin="round"/>
<path d="M26.333 90.9168V73.9167" stroke="#40455C" stroke-width="3" stroke-linecap="round" stroke-linejoin="round"/>
<path d="M22.458 55.0417L12.458 60.5832C10.208 61.8332 8.33301 64.9999 8.33301 67.5832V78.1667C8.33301 80.75 10.1664 83.9167 12.458 85.1667L22.458 90.7084C24.583 91.9167 28.083 91.9167 30.2497 90.7084L40.2497 85.1667C42.4997 83.9167 44.3746 80.75 44.3746 78.1667V67.5832C44.3746 64.9999 42.5414 61.8332 40.2497 60.5832L30.2497 55.0417C28.083 53.8751 24.583 53.8751 22.458 55.0417Z" stroke="#40455C" stroke-width="3" stroke-linecap="round" stroke-linejoin="round"/>
</svg>
