<svg width="132" height="132" viewBox="0 0 132 132" fill="none" xmlns="http://www.w3.org/2000/svg">
<g filter="url(#filter0_d_216_3871)">
<rect x="25" y="21" width="81.9999" height="82" rx="41" fill="#347ABF" shape-rendering="crispEdges"/>
<path d="M64.4396 78.5C64.1116 78.5 63.8328 78.4016 63.6032 78.2048C63.4064 77.9752 63.308 77.6964 63.308 77.3684V48.4388H53.8616C53.5336 48.4388 53.2548 48.3404 53.0252 48.1436C52.8284 47.914 52.73 47.6352 52.73 47.3072V45.2408C52.73 44.88 52.8284 44.6012 53.0252 44.4044C53.2548 44.1748 53.5336 44.06 53.8616 44.06H77.576C77.9368 44.06 78.2156 44.1748 78.4124 44.4044C78.642 44.6012 78.7568 44.88 78.7568 45.2408V47.3072C78.7568 47.6352 78.642 47.914 78.4124 48.1436C78.2156 48.3404 77.9368 48.4388 77.576 48.4388H68.1788V77.3684C68.1788 77.6964 68.064 77.9752 67.8344 78.2048C67.6376 78.4016 67.3588 78.5 66.998 78.5H64.4396Z" fill="white"/>
</g>
<defs>
<filter id="filter0_d_216_3871" x="0.400009" y="0.500008" width="131.2" height="131.2" filterUnits="userSpaceOnUse" color-interpolation-filters="sRGB">
<feFlood flood-opacity="0" result="BackgroundImageFix"/>
<feColorMatrix in="SourceAlpha" type="matrix" values="0 0 0 0 0 0 0 0 0 0 0 0 0 0 0 0 0 0 127 0" result="hardAlpha"/>
<feOffset dy="4.1"/>
<feGaussianBlur stdDeviation="12.3"/>
<feComposite in2="hardAlpha" operator="out"/>
<feColorMatrix type="matrix" values="0 0 0 0 0 0 0 0 0 0 0 0 0 0 0 0 0 0 0.25 0"/>
<feBlend mode="normal" in2="BackgroundImageFix" result="effect1_dropShadow_216_3871"/>
<feBlend mode="normal" in="SourceGraphic" in2="effect1_dropShadow_216_3871" result="shape"/>
</filter>
</defs>
</svg>
