<svg width="132" height="132" viewBox="0 0 132 132" fill="none" xmlns="http://www.w3.org/2000/svg">
<g filter="url(#filter0_d_216_3859)">
<rect x="25" y="21" width="81.9999" height="82" rx="41" fill="#0D4988" shape-rendering="crispEdges"/>
<path d="M65.9729 79.712C62.9553 79.712 60.4461 79.1544 58.4453 78.0392C56.4773 76.924 54.9849 75.366 53.9681 73.3652C52.9513 71.3644 52.3937 69.0356 52.2953 66.3788C52.2625 65.034 52.2461 63.5908 52.2461 62.0492C52.2461 60.5076 52.2625 59.0316 52.2953 57.6212C52.3937 54.9644 52.9513 52.6356 53.9681 50.6348C54.9849 48.634 56.4773 47.076 58.4453 45.9608C60.4461 44.8456 62.9553 44.288 65.9729 44.288C68.2361 44.288 70.2205 44.5996 71.9261 45.2228C73.6317 45.846 75.0421 46.6824 76.1573 47.732C77.3053 48.7816 78.1745 49.9624 78.7649 51.2744C79.3553 52.5536 79.6833 53.882 79.7489 55.2596C79.7817 55.5548 79.6833 55.8008 79.4537 55.9976C79.2569 56.1944 79.0109 56.2928 78.7157 56.2928H76.0097C75.7145 56.2928 75.4521 56.2108 75.2225 56.0468C75.0257 55.8828 74.8781 55.5876 74.7797 55.1612C74.2221 52.6028 73.1725 50.848 71.6309 49.8968C70.1221 48.9456 68.2197 48.47 65.9237 48.47C63.2997 48.47 61.2169 49.2244 59.6753 50.7332C58.1337 52.2092 57.2973 54.5872 57.1661 57.8672C57.0677 60.5568 57.0677 63.312 57.1661 66.1328C57.2973 69.4128 58.1337 71.8072 59.6753 73.316C61.2169 74.792 63.2997 75.53 65.9237 75.53C68.2197 75.53 70.1221 75.0544 71.6309 74.1032C73.1725 73.152 74.2221 71.3972 74.7797 68.8388C74.8781 68.4124 75.0257 68.1172 75.2225 67.9532C75.4521 67.7892 75.7145 67.7072 76.0097 67.7072H78.7157C79.0109 67.7072 79.2569 67.8056 79.4537 68.0024C79.6833 68.1992 79.7817 68.4452 79.7489 68.7404C79.6833 70.118 79.3553 71.4628 78.7649 72.7748C78.1745 74.054 77.3053 75.2184 76.1573 76.268C75.0421 77.3176 73.6317 78.154 71.9261 78.7772C70.2205 79.4004 68.2361 79.712 65.9729 79.712Z" fill="white"/>
</g>
<defs>
<filter id="filter0_d_216_3859" x="0.400009" y="0.500008" width="131.2" height="131.2" filterUnits="userSpaceOnUse" color-interpolation-filters="sRGB">
<feFlood flood-opacity="0" result="BackgroundImageFix"/>
<feColorMatrix in="SourceAlpha" type="matrix" values="0 0 0 0 0 0 0 0 0 0 0 0 0 0 0 0 0 0 127 0" result="hardAlpha"/>
<feOffset dy="4.1"/>
<feGaussianBlur stdDeviation="12.3"/>
<feComposite in2="hardAlpha" operator="out"/>
<feColorMatrix type="matrix" values="0 0 0 0 0 0 0 0 0 0 0 0 0 0 0 0 0 0 0.25 0"/>
<feBlend mode="normal" in2="BackgroundImageFix" result="effect1_dropShadow_216_3859"/>
<feBlend mode="normal" in="SourceGraphic" in2="effect1_dropShadow_216_3859" result="shape"/>
</filter>
</defs>
</svg>
