<svg width="82" height="82" viewBox="0 0 82 82" fill="none" xmlns="http://www.w3.org/2000/svg">
<rect x="0.000183105" width="81.9999" height="82" rx="41" fill="#C70806"/>
<path d="M40.6297 57.992C37.8417 57.992 35.4473 57.5164 33.4465 56.5652C31.4457 55.5812 29.9041 54.0888 28.8217 52.088C27.7393 50.0544 27.1325 47.5124 27.0013 44.462C26.9685 43.0188 26.9521 41.6412 26.9521 40.3292C26.9521 38.9844 26.9685 37.5904 27.0013 36.1472C27.1325 33.1296 27.7557 30.6204 28.8709 28.6196C30.0189 26.586 31.5933 25.0772 33.5941 24.0932C35.6277 23.0764 37.9729 22.568 40.6297 22.568C43.3193 22.568 45.6645 23.0764 47.6653 24.0932C49.6989 25.0772 51.2897 26.586 52.4377 28.6196C53.5857 30.6204 54.2089 33.1296 54.3073 36.1472C54.3729 37.5904 54.4057 38.9844 54.4057 40.3292C54.4057 41.6412 54.3729 43.0188 54.3073 44.462C54.2089 47.5124 53.6021 50.0544 52.4869 52.088C51.4045 54.0888 49.8629 55.5812 47.8621 56.5652C45.8613 57.5164 43.4505 57.992 40.6297 57.992ZM40.6297 53.81C43.1553 53.81 45.2053 53.0556 46.7797 51.5468C48.3869 50.038 49.2561 47.5944 49.3873 44.216C49.4529 42.74 49.4857 41.428 49.4857 40.28C49.4857 39.0992 49.4529 37.7872 49.3873 36.344C49.3217 34.0808 48.8953 32.244 48.1081 30.8336C47.3537 29.4232 46.3369 28.39 45.0577 27.734C43.7785 27.078 42.3025 26.75 40.6297 26.75C39.0225 26.75 37.5793 27.078 36.3001 27.734C35.0209 28.39 33.9877 29.4232 33.2005 30.8336C32.4461 32.244 32.0197 34.0808 31.9213 36.344C31.8885 37.7872 31.8721 39.0992 31.8721 40.28C31.8721 41.428 31.8885 42.74 31.9213 44.216C32.0525 47.5944 32.9217 50.038 34.5289 51.5468C36.1361 53.0556 38.1697 53.81 40.6297 53.81Z" fill="white"/>
</svg>
