<svg width="132" height="132" viewBox="0 0 132 132" fill="none" xmlns="http://www.w3.org/2000/svg">
<g filter="url(#filter0_d_216_3861)">
<rect x="25" y="21" width="81.9999" height="82" rx="41" fill="#C70806" shape-rendering="crispEdges"/>
<path d="M65.6296 78.992C62.8416 78.992 60.4472 78.5164 58.4464 77.5652C56.4456 76.5812 54.904 75.0888 53.8216 73.088C52.7392 71.0544 52.1324 68.5124 52.0012 65.462C51.9684 64.0188 51.952 62.6412 51.952 61.3292C51.952 59.9844 51.9684 58.5904 52.0012 57.1472C52.1324 54.1296 52.7556 51.6204 53.8708 49.6196C55.0188 47.586 56.5932 46.0772 58.594 45.0932C60.6276 44.0764 62.9728 43.568 65.6296 43.568C68.3192 43.568 70.6644 44.0764 72.6652 45.0932C74.6988 46.0772 76.2896 47.586 77.4376 49.6196C78.5856 51.6204 79.2088 54.1296 79.3072 57.1472C79.3728 58.5904 79.4056 59.9844 79.4056 61.3292C79.4056 62.6412 79.3728 64.0188 79.3072 65.462C79.2088 68.5124 78.602 71.0544 77.4868 73.088C76.4044 75.0888 74.8628 76.5812 72.862 77.5652C70.8612 78.5164 68.4504 78.992 65.6296 78.992ZM65.6296 74.81C68.1552 74.81 70.2052 74.0556 71.7796 72.5468C73.3868 71.038 74.256 68.5944 74.3872 65.216C74.4528 63.74 74.4856 62.428 74.4856 61.28C74.4856 60.0992 74.4528 58.7872 74.3872 57.344C74.3216 55.0808 73.8952 53.244 73.108 51.8336C72.3536 50.4232 71.3368 49.39 70.0576 48.734C68.7784 48.078 67.3024 47.75 65.6296 47.75C64.0224 47.75 62.5792 48.078 61.3 48.734C60.0208 49.39 58.9876 50.4232 58.2004 51.8336C57.446 53.244 57.0196 55.0808 56.9212 57.344C56.8884 58.7872 56.872 60.0992 56.872 61.28C56.872 62.428 56.8884 63.74 56.9212 65.216C57.0524 68.5944 57.9216 71.038 59.5288 72.5468C61.136 74.0556 63.1696 74.81 65.6296 74.81Z" fill="white"/>
</g>
<defs>
<filter id="filter0_d_216_3861" x="0.400009" y="0.500008" width="131.2" height="131.2" filterUnits="userSpaceOnUse" color-interpolation-filters="sRGB">
<feFlood flood-opacity="0" result="BackgroundImageFix"/>
<feColorMatrix in="SourceAlpha" type="matrix" values="0 0 0 0 0 0 0 0 0 0 0 0 0 0 0 0 0 0 127 0" result="hardAlpha"/>
<feOffset dy="4.1"/>
<feGaussianBlur stdDeviation="12.3"/>
<feComposite in2="hardAlpha" operator="out"/>
<feColorMatrix type="matrix" values="0 0 0 0 0 0 0 0 0 0 0 0 0 0 0 0 0 0 0.25 0"/>
<feBlend mode="normal" in2="BackgroundImageFix" result="effect1_dropShadow_216_3861"/>
<feBlend mode="normal" in="SourceGraphic" in2="effect1_dropShadow_216_3861" result="shape"/>
</filter>
</defs>
</svg>
