<svg width="132" height="132" viewBox="0 0 132 132" fill="none" xmlns="http://www.w3.org/2000/svg">
<g filter="url(#filter0_d_216_3867)">
<rect x="25" y="21" width="81.9999" height="82" rx="41" fill="#316B1B" shape-rendering="crispEdges"/>
<path d="M56.412 78.5C56.0512 78.5 55.7724 78.4016 55.5756 78.2048C55.3788 77.9752 55.2804 77.6964 55.2804 77.3684V45.2408C55.2804 44.88 55.3788 44.6012 55.5756 44.4044C55.7724 44.1748 56.0512 44.06 56.412 44.06H76.7316C77.0924 44.06 77.3712 44.1748 77.568 44.4044C77.7648 44.6012 77.8632 44.88 77.8632 45.2408V47.1104C77.8632 47.4712 77.7648 47.75 77.568 47.9468C77.3712 48.1436 77.0924 48.242 76.7316 48.242H60.0036V59.0168H75.6492C76.01 59.0168 76.2888 59.1316 76.4856 59.3612C76.6824 59.558 76.7808 59.8368 76.7808 60.1976V62.018C76.7808 62.346 76.6824 62.6248 76.4856 62.8544C76.2888 63.0512 76.01 63.1496 75.6492 63.1496H60.0036V74.318H77.1252C77.486 74.318 77.7648 74.4164 77.9616 74.6132C78.1584 74.81 78.2568 75.0888 78.2568 75.4496V77.3684C78.2568 77.6964 78.1584 77.9752 77.9616 78.2048C77.7648 78.4016 77.486 78.5 77.1252 78.5H56.412Z" fill="white"/>
</g>
<defs>
<filter id="filter0_d_216_3867" x="0.400009" y="0.500008" width="131.2" height="131.2" filterUnits="userSpaceOnUse" color-interpolation-filters="sRGB">
<feFlood flood-opacity="0" result="BackgroundImageFix"/>
<feColorMatrix in="SourceAlpha" type="matrix" values="0 0 0 0 0 0 0 0 0 0 0 0 0 0 0 0 0 0 127 0" result="hardAlpha"/>
<feOffset dy="4.1"/>
<feGaussianBlur stdDeviation="12.3"/>
<feComposite in2="hardAlpha" operator="out"/>
<feColorMatrix type="matrix" values="0 0 0 0 0 0 0 0 0 0 0 0 0 0 0 0 0 0 0.25 0"/>
<feBlend mode="normal" in2="BackgroundImageFix" result="effect1_dropShadow_216_3867"/>
<feBlend mode="normal" in="SourceGraphic" in2="effect1_dropShadow_216_3867" result="shape"/>
</filter>
</defs>
</svg>
