<svg width="82" height="82" viewBox="0 0 82 82" fill="none" xmlns="http://www.w3.org/2000/svg">
<rect width="81.9999" height="82" rx="41" fill="#316B1B"/>
<path d="M31.4119 57.5C31.0511 57.5 30.7723 57.4016 30.5755 57.2048C30.3787 56.9752 30.2803 56.6964 30.2803 56.3684V24.2408C30.2803 23.88 30.3787 23.6012 30.5755 23.4044C30.7723 23.1748 31.0511 23.06 31.4119 23.06H51.7315C52.0923 23.06 52.3711 23.1748 52.5679 23.4044C52.7647 23.6012 52.8631 23.88 52.8631 24.2408V26.1104C52.8631 26.4712 52.7647 26.75 52.5679 26.9468C52.3711 27.1436 52.0923 27.242 51.7315 27.242H35.0035V38.0168H50.6491C51.0099 38.0168 51.2887 38.1316 51.4855 38.3612C51.6823 38.558 51.7807 38.8368 51.7807 39.1976V41.018C51.7807 41.346 51.6823 41.6248 51.4855 41.8544C51.2887 42.0512 51.0099 42.1496 50.6491 42.1496H35.0035V53.318H52.1251C52.4859 53.318 52.7647 53.4164 52.9615 53.6132C53.1583 53.81 53.2567 54.0888 53.2567 54.4496V56.3684C53.2567 56.6964 53.1583 56.9752 52.9615 57.2048C52.7647 57.4016 52.4859 57.5 52.1251 57.5H31.4119Z" fill="white"/>
</svg>
