<svg width="100" height="100" viewBox="0 0 100 100" fill="none" xmlns="http://www.w3.org/2000/svg">
<path d="M37.5 54.1667C34.75 55.5417 32.4583 57.5833 30.75 60.125C29.7917 61.5833 29.7917 63.4167 30.75 64.875C32.4583 67.4167 34.75 69.4583 37.5 70.8333" stroke="#40455C" stroke-width="3" stroke-linecap="round" stroke-linejoin="round"/>
<path d="M63.375 54.1667C66.125 55.5417 68.4167 57.5833 70.125 60.125C71.0833 61.5833 71.0833 63.4167 70.125 64.875C68.4167 67.4167 66.125 69.4583 63.375 70.8333" stroke="#40455C" stroke-width="3" stroke-linecap="round" stroke-linejoin="round"/>
<path d="M37.4999 91.6667H62.4999C83.3333 91.6667 91.6666 83.3333 91.6666 62.5V37.5C91.6666 16.6667 83.3333 8.33334 62.4999 8.33334H37.4999C16.6666 8.33334 8.33325 16.6667 8.33325 37.5V62.5C8.33325 83.3333 16.6666 91.6667 37.4999 91.6667Z" stroke="#40455C" stroke-width="3" stroke-linecap="round" stroke-linejoin="round"/>
<path d="M9.29175 33.375L89.3751 33.3333" stroke="#40455C" stroke-width="3" stroke-linecap="round" stroke-linejoin="round"/>
</svg>
