<svg width="82" height="82" viewBox="0 0 82 82" fill="none" xmlns="http://www.w3.org/2000/svg">
<rect x="0.00012207" width="81.9999" height="82" rx="41" fill="#FFA100"/>
<path d="M28.9121 57.5C28.5513 57.5 28.2725 57.4016 28.0757 57.2048C27.8789 56.9752 27.7805 56.6964 27.7805 56.3684V24.2408C27.7805 23.88 27.8789 23.6012 28.0757 23.4044C28.2725 23.1748 28.5513 23.06 28.9121 23.06H31.1753C31.5689 23.06 31.8641 23.1584 32.0609 23.3552C32.2577 23.5192 32.3725 23.6504 32.4053 23.7488L48.7397 48.8408V24.2408C48.7397 23.88 48.8381 23.6012 49.0349 23.4044C49.2317 23.1748 49.5105 23.06 49.8713 23.06H52.2329C52.5937 23.06 52.8725 23.1748 53.0693 23.4044C53.2989 23.6012 53.4137 23.88 53.4137 24.2408V56.3192C53.4137 56.6472 53.2989 56.926 53.0693 57.1556C52.8725 57.3852 52.6101 57.5 52.2821 57.5H49.9205C49.5597 57.5 49.2809 57.4016 49.0841 57.2048C48.9201 57.008 48.8053 56.8768 48.7397 56.8112L32.4545 31.9652V56.3684C32.4545 56.6964 32.3397 56.9752 32.1101 57.2048C31.9133 57.4016 31.6345 57.5 31.2737 57.5H28.9121Z" fill="white"/>
</svg>
