<svg width="82" height="82" viewBox="0 0 82 82" fill="none" xmlns="http://www.w3.org/2000/svg">
<rect x="0.000244141" width="81.9999" height="82" rx="41" fill="#0D4988"/>
<path d="M40.9727 58.712C37.9551 58.712 35.4459 58.1544 33.4451 57.0392C31.4771 55.924 29.9847 54.366 28.9679 52.3652C27.9511 50.3644 27.3935 48.0356 27.2951 45.3788C27.2623 44.034 27.2459 42.5908 27.2459 41.0492C27.2459 39.5076 27.2623 38.0316 27.2951 36.6212C27.3935 33.9644 27.9511 31.6356 28.9679 29.6348C29.9847 27.634 31.4771 26.076 33.4451 24.9608C35.4459 23.8456 37.9551 23.288 40.9727 23.288C43.2359 23.288 45.2203 23.5996 46.9259 24.2228C48.6315 24.846 50.0419 25.6824 51.1571 26.732C52.3051 27.7816 53.1743 28.9624 53.7647 30.2744C54.3551 31.5536 54.6831 32.882 54.7487 34.2596C54.7815 34.5548 54.6831 34.8008 54.4535 34.9976C54.2567 35.1944 54.0107 35.2928 53.7155 35.2928H51.0095C50.7143 35.2928 50.4519 35.2108 50.2223 35.0468C50.0255 34.8828 49.8779 34.5876 49.7795 34.1612C49.2219 31.6028 48.1723 29.848 46.6307 28.8968C45.1219 27.9456 43.2195 27.47 40.9235 27.47C38.2995 27.47 36.2167 28.2244 34.6751 29.7332C33.1335 31.2092 32.2971 33.5872 32.1659 36.8672C32.0675 39.5568 32.0675 42.312 32.1659 45.1328C32.2971 48.4128 33.1335 50.8072 34.6751 52.316C36.2167 53.792 38.2995 54.53 40.9235 54.53C43.2195 54.53 45.1219 54.0544 46.6307 53.1032C48.1723 52.152 49.2219 50.3972 49.7795 47.8388C49.8779 47.4124 50.0255 47.1172 50.2223 46.9532C50.4519 46.7892 50.7143 46.7072 51.0095 46.7072H53.7155C54.0107 46.7072 54.2567 46.8056 54.4535 47.0024C54.6831 47.1992 54.7815 47.4452 54.7487 47.7404C54.6831 49.118 54.3551 50.4628 53.7647 51.7748C53.1743 53.054 52.3051 54.2184 51.1571 55.268C50.0419 56.3176 48.6315 57.154 46.9259 57.7772C45.2203 58.4004 43.2359 58.712 40.9727 58.712Z" fill="white"/>
</svg>
