<svg width="82" height="82" viewBox="0 0 82 82" fill="none" xmlns="http://www.w3.org/2000/svg">
<rect x="-0.00012207" width="81.9999" height="82" rx="41" fill="#5F499F"/>
<path d="M41.1786 57.992C38.161 57.992 35.6518 57.4344 33.651 56.3192C31.683 55.204 30.1906 53.646 29.1738 51.6452C28.157 49.6444 27.5994 47.3156 27.501 44.6588C27.4682 43.314 27.4518 41.8708 27.4518 40.3292C27.4518 38.7876 27.4682 37.3116 27.501 35.9012C27.5994 33.2444 28.157 30.9156 29.1738 28.9148C30.1906 26.914 31.683 25.356 33.651 24.2408C35.6518 23.1256 38.161 22.568 41.1786 22.568C43.4418 22.568 45.4262 22.8796 47.1318 23.5028C48.8374 24.126 50.2478 24.9624 51.363 26.012C52.511 27.0616 53.3802 28.2424 53.9706 29.5544C54.561 30.8336 54.889 32.162 54.9546 33.5396C54.9874 33.8348 54.889 34.0808 54.6594 34.2776C54.4626 34.4744 54.2166 34.5728 53.9214 34.5728H51.2154C50.9202 34.5728 50.6578 34.4908 50.4282 34.3268C50.2314 34.1628 50.0838 33.8676 49.9854 33.4412C49.4278 30.8828 48.3782 29.128 46.8366 28.1768C45.3278 27.2256 43.4254 26.75 41.1294 26.75C38.5054 26.75 36.4226 27.5044 34.881 29.0132C33.3394 30.4892 32.503 32.8672 32.3718 36.1472C32.2734 38.8368 32.2734 41.592 32.3718 44.4128C32.503 47.6928 33.3394 50.0872 34.881 51.596C36.4226 53.072 38.5054 53.81 41.1294 53.81C43.4254 53.81 45.3278 53.3344 46.8366 52.3832C48.3782 51.432 49.4278 49.6772 49.9854 47.1188C50.0838 46.6924 50.2314 46.3972 50.4282 46.2332C50.6578 46.0692 50.9202 45.9872 51.2154 45.9872H53.9214C54.2166 45.9872 54.4626 46.0856 54.6594 46.2824C54.889 46.4792 54.9874 46.7252 54.9546 47.0204C54.889 48.398 54.561 49.7428 53.9706 51.0548C53.3802 52.334 52.511 53.4984 51.363 54.548C50.2478 55.5976 48.8374 56.434 47.1318 57.0572C45.4262 57.6804 43.4418 57.992 41.1786 57.992Z" fill="white"/>
</svg>
