<svg width="82" height="82" viewBox="0 0 82 82" fill="none" xmlns="http://www.w3.org/2000/svg">
<rect x="6.10352e-05" width="81.9999" height="82" rx="41" fill="#7A3555"/>
<path d="M28.912 57.5C28.5512 57.5 28.2724 57.4016 28.0756 57.2048C27.8788 56.9752 27.7804 56.6964 27.7804 56.3684V24.2408C27.7804 23.88 27.8788 23.6012 28.0756 23.4044C28.2724 23.1748 28.5512 23.06 28.912 23.06H31.1752C31.5688 23.06 31.864 23.1584 32.0608 23.3552C32.2576 23.5192 32.3724 23.6504 32.4052 23.7488L48.7396 48.8408V24.2408C48.7396 23.88 48.838 23.6012 49.0348 23.4044C49.2316 23.1748 49.5104 23.06 49.8712 23.06H52.2328C52.5936 23.06 52.8724 23.1748 53.0692 23.4044C53.2988 23.6012 53.4136 23.88 53.4136 24.2408V56.3192C53.4136 56.6472 53.2988 56.926 53.0692 57.1556C52.8724 57.3852 52.61 57.5 52.282 57.5H49.9204C49.5596 57.5 49.2808 57.4016 49.084 57.2048C48.92 57.008 48.8052 56.8768 48.7396 56.8112L32.4544 31.9652V56.3684C32.4544 56.6964 32.3396 56.9752 32.11 57.2048C31.9132 57.4016 31.6344 57.5 31.2736 57.5H28.912Z" fill="white"/>
</svg>
