<svg width="82" height="82" viewBox="0 0 82 82" fill="none" xmlns="http://www.w3.org/2000/svg">
<rect x="-0.000244141" width="81.9999" height="82" rx="41" fill="#347ABF"/>
<path d="M39.4394 57.5C39.1114 57.5 38.8326 57.4016 38.603 57.2048C38.4062 56.9752 38.3078 56.6964 38.3078 56.3684V27.4388H28.8614C28.5334 27.4388 28.2546 27.3404 28.025 27.1436C27.8282 26.914 27.7298 26.6352 27.7298 26.3072V24.2408C27.7298 23.88 27.8282 23.6012 28.025 23.4044C28.2546 23.1748 28.5334 23.06 28.8614 23.06H52.5757C52.9365 23.06 53.2153 23.1748 53.4121 23.4044C53.6417 23.6012 53.7565 23.88 53.7565 24.2408V26.3072C53.7565 26.6352 53.6417 26.914 53.4121 27.1436C53.2153 27.3404 52.9365 27.4388 52.5757 27.4388H43.1786V56.3684C43.1786 56.6964 43.0638 56.9752 42.8342 57.2048C42.6374 57.4016 42.3586 57.5 41.9978 57.5H39.4394Z" fill="white"/>
</svg>
