<svg width="100" height="100" viewBox="0 0 100 100" fill="none" xmlns="http://www.w3.org/2000/svg">
<path d="M43.75 65.625C43.75 71.4267 46.0546 76.9904 50.1571 81.0929C54.2596 85.1954 59.8233 87.5 65.625 87.5C71.4267 87.5 76.9904 85.1954 81.0929 81.0929C85.1954 76.9904 87.5 71.4267 87.5 65.625C87.5 59.8233 85.1954 54.2596 81.0929 50.1571C76.9904 46.0546 71.4267 43.75 65.625 43.75C59.8233 43.75 54.2596 46.0546 50.1571 50.1571C46.0546 54.2596 43.75 59.8233 43.75 65.625Z" stroke="#40455C" stroke-width="3" stroke-linecap="round" stroke-linejoin="round"/>
<path d="M96.8751 96.8749L81.0918 81.0916" stroke="#40455C" stroke-width="3" stroke-linecap="round" stroke-linejoin="round"/>
<path d="M50 96.875C40.729 96.875 31.6662 94.1258 23.9577 88.975C16.2491 83.8246 10.241 76.5037 6.69317 67.9383C3.14531 59.3729 2.21703 49.9479 4.02571 40.8552C5.83437 31.7623 10.2988 23.41 16.8544 16.8544C23.41 10.2988 31.7623 5.83437 40.8552 4.02571C49.9479 2.21703 59.3729 3.14531 67.9383 6.69317C76.5037 10.241 83.8246 16.2491 88.975 23.9577C94.1258 31.6662 96.875 40.729 96.875 50" stroke="#40455C" stroke-width="3" stroke-linecap="round" stroke-linejoin="round"/>
<path d="M38.7042 95.5043C32.3667 86.2043 28.125 69.3043 28.125 50.0001C28.125 30.6959 32.3667 13.8 38.7042 4.49585" stroke="#40455C" stroke-width="3" stroke-linecap="round" stroke-linejoin="round"/>
<path d="M3.229 46.875H37.4998" stroke="#40455C" stroke-width="3" stroke-linecap="round" stroke-linejoin="round"/>
<path d="M12.4956 21.875H87.4998" stroke="#40455C" stroke-width="3" stroke-linecap="round" stroke-linejoin="round"/>
<path d="M8.5332 71.875H30.0582" stroke="#40455C" stroke-width="3" stroke-linecap="round" stroke-linejoin="round"/>
<path d="M61.2959 4.49585C66.2055 12.6594 69.3296 21.7706 70.4626 31.2292" stroke="#40455C" stroke-width="3" stroke-linecap="round" stroke-linejoin="round"/>
</svg>
