<svg width="100" height="100" viewBox="0 0 100 100" fill="none" xmlns="http://www.w3.org/2000/svg">
<path d="M79.4163 77.7915L70.4997 60L61.583 77.7915" stroke="#40455C" stroke-width="3" stroke-linecap="round" stroke-linejoin="round"/>
<path d="M63.208 74.625H77.8747" stroke="#40455C" stroke-width="3" stroke-linecap="round" stroke-linejoin="round"/>
<path d="M70.4997 91.6667C58.833 91.6667 49.333 82.2083 49.333 70.5C49.333 58.8333 58.7913 49.3335 70.4997 49.3335C82.1663 49.3335 91.6664 58.7916 91.6664 70.5C91.6664 82.2083 82.208 91.6667 70.4997 91.6667Z" stroke="#40455C" stroke-width="3" stroke-linecap="round" stroke-linejoin="round"/>
<path d="M20.9164 8.3335H37.2497C45.8747 8.3335 50.0414 12.5002 49.833 20.9169V37.2502C50.0414 45.8752 45.8747 50.0419 37.2497 49.8336H20.9164C12.4997 50.0003 8.33301 45.8335 8.33301 37.2085V20.8752C8.33301 12.5002 12.4997 8.3335 20.9164 8.3335Z" stroke="#40455C" stroke-width="3" stroke-linecap="round" stroke-linejoin="round"/>
<path d="M37.5417 24.375H20.625" stroke="#40455C" stroke-width="3" stroke-linecap="round" stroke-linejoin="round"/>
<path d="M29.041 21.5415V24.3748" stroke="#40455C" stroke-width="3" stroke-linecap="round" stroke-linejoin="round"/>
<path d="M33.2914 24.3335C33.2914 31.6252 27.583 37.5418 20.583 37.5418" stroke="#40455C" stroke-width="3" stroke-linecap="round" stroke-linejoin="round"/>
<path d="M37.5413 37.5414C34.4996 37.5414 31.7497 35.9163 29.833 33.333" stroke="#40455C" stroke-width="3" stroke-linecap="round" stroke-linejoin="round"/>
<path d="M8.33301 62.5C8.33301 78.625 21.3747 91.6667 37.4997 91.6667L33.1247 84.375" stroke="#40455C" stroke-width="3" stroke-linecap="round" stroke-linejoin="round"/>
<path d="M91.6667 37.5002C91.6667 21.3752 78.625 8.3335 62.5 8.3335L66.875 15.6252" stroke="#40455C" stroke-width="3" stroke-linecap="round" stroke-linejoin="round"/>
</svg>
