<svg width="100" height="100" viewBox="0 0 100 100" fill="none" xmlns="http://www.w3.org/2000/svg">
<path d="M50.0083 71.863V96.863" stroke="#40455C" stroke-width="3" stroke-linecap="round" stroke-linejoin="round"/>
<path d="M50.0083 3.11279V28.1128" stroke="#40455C" stroke-width="3" stroke-linecap="round" stroke-linejoin="round"/>
<path d="M28.1333 49.9878H3.1333" stroke="#40455C" stroke-width="3" stroke-linecap="round" stroke-linejoin="round"/>
<path d="M96.8833 49.9878H71.8833" stroke="#40455C" stroke-width="3" stroke-linecap="round" stroke-linejoin="round"/>
<path d="M15.6333 49.9917C15.6333 54.5063 16.5225 58.9759 18.25 63.1467C19.9775 67.3172 22.5095 71.1067 25.7015 74.2988C28.8936 77.4909 32.683 80.023 36.8536 81.7505C41.0241 83.478 45.4941 84.3667 50.0083 84.3667C54.5224 84.3667 58.9924 83.478 63.1633 81.7505C67.3337 80.023 71.1233 77.4909 74.3149 74.2988C77.507 71.1067 80.0391 67.3172 81.7666 63.1467C83.4941 58.9759 84.3833 54.5063 84.3833 49.9917C84.3833 45.4776 83.4941 41.0077 81.7666 36.8372C80.0391 32.6666 77.507 28.8772 74.3149 25.6852C71.1233 22.4931 67.3337 19.9611 63.1633 18.2336C58.9924 16.5061 54.5224 15.6169 50.0083 15.6169C45.4941 15.6169 41.0241 16.5061 36.8536 18.2336C32.683 19.9611 28.8936 22.4931 25.7015 25.6852C22.5095 28.8772 19.9775 32.6666 18.25 36.8372C16.5225 41.0077 15.6333 45.4776 15.6333 49.9917Z" stroke="#40455C" stroke-width="3" stroke-linecap="round" stroke-linejoin="round"/>
</svg>
