<svg width="100" height="100" viewBox="0 0 100 100" fill="none" xmlns="http://www.w3.org/2000/svg">
<path d="M46.875 93.75C35.2718 93.75 24.1438 89.1408 15.9391 80.9358C7.73438 72.7312 3.125 61.6033 3.125 50C3.125 38.3968 7.73438 27.2688 15.9391 19.0641C24.1438 10.8594 35.2718 6.25 46.875 6.25" stroke="#40455C" stroke-width="3" stroke-linecap="round" stroke-linejoin="round"/>
<path d="M46.875 6.25C46.875 6.25 25 18.75 25 50C25 81.25 46.875 93.75 46.875 93.75" stroke="#40455C" stroke-width="3" stroke-linecap="round" stroke-linejoin="round"/>
<path d="M46.8749 31.25H7.3374" stroke="#40455C" stroke-width="3" stroke-linecap="round" stroke-linejoin="round"/>
<path d="M46.8749 68.75H7.3374" stroke="#40455C" stroke-width="3" stroke-linecap="round" stroke-linejoin="round"/>
<path d="M65.625 18.75C65.625 22.0652 66.9421 25.2446 69.2863 27.5888C71.6304 29.933 74.81 31.25 78.125 31.25C81.44 31.25 84.6196 29.933 86.9637 27.5888C89.3079 25.2446 90.625 22.0652 90.625 18.75C90.625 15.4348 89.3079 12.2554 86.9637 9.91117C84.6196 7.56696 81.44 6.25 78.125 6.25C74.81 6.25 71.6304 7.56696 69.2863 9.91117C66.9421 12.2554 65.625 15.4348 65.625 18.75Z" stroke="#40455C" stroke-width="3" stroke-linecap="round" stroke-linejoin="round"/>
<path d="M89 41.0249L78.125 56.2499L67.25 41.0249C64.8179 42.7507 62.8342 45.0328 61.4646 47.6815C60.0946 50.3299 59.3779 53.2678 59.375 56.2499V68.7499C59.375 70.4074 60.0333 71.9974 61.2054 73.1694C62.3775 74.3415 63.9675 74.9999 65.625 74.9999H68.75V87.4999C68.75 89.1574 69.4083 90.7474 70.5804 91.9194C71.7525 93.0915 73.3425 93.7499 75 93.7499H81.25C82.9075 93.7499 84.4975 93.0915 85.6696 91.9194C86.8417 90.7474 87.5 89.1574 87.5 87.4999V74.9999H90.625C92.2825 74.9999 93.8725 74.3415 95.0446 73.1694C96.2167 71.9974 96.875 70.4074 96.875 68.7499V56.2499C96.8721 53.2678 96.1554 50.3299 94.7854 47.6815C93.4158 45.0328 91.4321 42.7507 89 41.0249Z" stroke="#40455C" stroke-width="3" stroke-linecap="round" stroke-linejoin="round"/>
</svg>
