<svg width="100" height="100" viewBox="0 0 100 100" fill="none" xmlns="http://www.w3.org/2000/svg">
<path d="M70.833 55.8332V68.3332C70.833 84.9998 64.1663 91.6665 47.4997 91.6665H31.6663C14.9997 91.6665 8.33301 84.9998 8.33301 68.3332V52.4998C8.33301 35.8332 14.9997 29.1665 31.6663 29.1665H44.1663" stroke="#40455C" stroke-width="3" stroke-linecap="round" stroke-linejoin="round"/>
<path d="M70.8337 55.8332H57.5003C47.5003 55.8332 44.167 52.4998 44.167 42.4998V29.1665L70.8337 55.8332Z" stroke="#40455C" stroke-width="3" stroke-linecap="round" stroke-linejoin="round"/>
<path d="M48.333 8.3335H64.9997" stroke="#40455C" stroke-width="3" stroke-linecap="round" stroke-linejoin="round"/>
<path d="M29.167 20.8335C29.167 13.9168 34.7503 8.3335 41.667 8.3335H52.5837" stroke="#40455C" stroke-width="3" stroke-linecap="round" stroke-linejoin="round"/>
<path d="M91.6663 33.3335V59.1252C91.6663 65.5835 86.4163 70.8335 79.958 70.8335" stroke="#40455C" stroke-width="3" stroke-linecap="round" stroke-linejoin="round"/>
<path d="M91.667 33.3335H79.167C69.792 33.3335 66.667 30.2085 66.667 20.8335V8.3335L91.667 33.3335Z" stroke="#40455C" stroke-width="3" stroke-linecap="round" stroke-linejoin="round"/>
</svg>
