<svg width="100" height="100" viewBox="0 0 100 100" fill="none" xmlns="http://www.w3.org/2000/svg">
<path d="M3.125 50C3.125 62.4321 8.06358 74.355 16.8544 83.1458C25.6451 91.9362 37.568 96.875 50 96.875C62.4321 96.875 74.355 91.9362 83.1458 83.1458C91.9362 74.355 96.875 62.4321 96.875 50C96.875 37.568 91.9362 25.6451 83.1458 16.8544C74.355 8.06358 62.4321 3.125 50 3.125C37.568 3.125 25.6451 8.06358 16.8544 16.8544C8.06358 25.6451 3.125 37.568 3.125 50Z" stroke="#40455C" stroke-width="3" stroke-linecap="round" stroke-linejoin="round"/>
<path d="M28.125 46.3542C28.125 51.1887 30.0456 55.8254 33.4642 59.2442C36.8828 62.6629 41.5195 64.5833 46.3542 64.5833C51.1887 64.5833 55.8254 62.6629 59.2442 59.2442C62.6629 55.8254 64.5833 51.1887 64.5833 46.3542C64.5833 41.5195 62.6629 36.8828 59.2442 33.4642C55.8254 30.0456 51.1887 28.125 46.3542 28.125C41.5195 28.125 36.8828 30.0456 33.4642 33.4642C30.0456 36.8828 28.125 41.5195 28.125 46.3542Z" stroke="#40455C" stroke-width="3" stroke-linecap="round" stroke-linejoin="round"/>
<path d="M59.2456 59.2417L71.8748 71.875" stroke="#40455C" stroke-width="3" stroke-linecap="round" stroke-linejoin="round"/>
</svg>
