<svg width="100" height="100" viewBox="0 0 100 100" fill="none" xmlns="http://www.w3.org/2000/svg">
<path d="M3.125 12.5C3.125 13.7311 3.36749 14.9503 3.83863 16.0877C4.30975 17.2251 5.00033 18.2586 5.87088 19.1291C6.74142 19.9997 7.77492 20.6902 8.91233 21.1614C10.0497 21.6325 11.2689 21.875 12.5 21.875C13.7311 21.875 14.9503 21.6325 16.0877 21.1614C17.2251 20.6902 18.2586 19.9997 19.1291 19.1291C19.9997 18.2586 20.6902 17.2251 21.1614 16.0877C21.6325 14.9503 21.875 13.7311 21.875 12.5C21.875 11.2689 21.6325 10.0497 21.1614 8.91233C20.6902 7.77492 19.9997 6.74142 19.1291 5.87088C18.2586 5.00033 17.2251 4.30975 16.0877 3.83863C14.9503 3.36749 13.7311 3.125 12.5 3.125C11.2689 3.125 10.0497 3.36749 8.91233 3.83863C7.77492 4.30975 6.74142 5.00033 5.87088 5.87088C5.00033 6.74142 4.30975 7.77492 3.83863 8.91233C3.36749 10.0497 3.125 11.2689 3.125 12.5Z" stroke="#40455C" stroke-width="3" stroke-linecap="round" stroke-linejoin="round"/>
<path d="M20.0918 18.0042L28.1251 23.8291" stroke="#40455C" stroke-width="3" stroke-linecap="round" stroke-linejoin="round"/>
<path d="M3.125 87.5C3.125 88.7312 3.36749 89.9504 3.83863 91.0875C4.30975 92.225 5.00033 93.2587 5.87088 94.1292C6.74142 94.9996 7.77492 95.6904 8.91233 96.1612C10.0497 96.6325 11.2689 96.875 12.5 96.875C13.7311 96.875 14.9503 96.6325 16.0877 96.1612C17.2251 95.6904 18.2586 94.9996 19.1291 94.1292C19.9997 93.2587 20.6902 92.225 21.1614 91.0875C21.6325 89.9504 21.875 88.7312 21.875 87.5C21.875 86.2687 21.6325 85.0496 21.1614 83.9125C20.6902 82.775 19.9997 81.7413 19.1291 80.8708C18.2586 80.0004 17.2251 79.3096 16.0877 78.8388C14.9503 78.3675 13.7311 78.125 12.5 78.125C11.2689 78.125 10.0497 78.3675 8.91233 78.8388C7.77492 79.3096 6.74142 80.0004 5.87088 80.8708C5.00033 81.7413 4.30975 82.775 3.83863 83.9125C3.36749 85.0496 3.125 86.2687 3.125 87.5Z" stroke="#40455C" stroke-width="3" stroke-linecap="round" stroke-linejoin="round"/>
<path d="M20.0918 81.9959L28.1251 76.1667" stroke="#40455C" stroke-width="3" stroke-linecap="round" stroke-linejoin="round"/>
<path d="M78.125 12.5C78.125 14.9864 79.1129 17.371 80.8708 19.1291C82.6292 20.8873 85.0137 21.875 87.5 21.875C89.9862 21.875 92.3708 20.8873 94.1292 19.1291C95.8871 17.371 96.875 14.9864 96.875 12.5C96.875 10.0136 95.8871 7.62904 94.1292 5.87088C92.3708 4.11272 89.9862 3.125 87.5 3.125C85.0137 3.125 82.6292 4.11272 80.8708 5.87088C79.1129 7.62904 78.125 10.0136 78.125 12.5Z" stroke="#40455C" stroke-width="3" stroke-linecap="round" stroke-linejoin="round"/>
<path d="M79.9083 18.0042L71.875 23.8291" stroke="#40455C" stroke-width="3" stroke-linecap="round" stroke-linejoin="round"/>
<path d="M78.125 87.5C78.125 89.9862 79.1129 92.3708 80.8708 94.1292C82.6292 95.8871 85.0137 96.875 87.5 96.875C89.9862 96.875 92.3708 95.8871 94.1292 94.1292C95.8871 92.3708 96.875 89.9862 96.875 87.5C96.875 85.0137 95.8871 82.6292 94.1292 80.8708C92.3708 79.1129 89.9862 78.125 87.5 78.125C85.0137 78.125 82.6292 79.1129 80.8708 80.8708C79.1129 82.6292 78.125 85.0137 78.125 87.5Z" stroke="#40455C" stroke-width="3" stroke-linecap="round" stroke-linejoin="round"/>
<path d="M79.9083 81.9959L71.875 76.1667" stroke="#40455C" stroke-width="3" stroke-linecap="round" stroke-linejoin="round"/>
<path d="M39.0625 32.8125C39.0625 35.7133 40.2148 38.4953 42.2658 40.5465C44.3171 42.5975 47.0992 43.75 50 43.75C52.9008 43.75 55.6829 42.5975 57.7342 40.5465C59.785 38.4953 60.9375 35.7133 60.9375 32.8125C60.9375 29.9117 59.785 27.1297 57.7342 25.0785C55.6829 23.0273 52.9008 21.875 50 21.875C47.0992 21.875 44.3171 23.0273 42.2658 25.0785C40.2148 27.1297 39.0625 29.9117 39.0625 32.8125Z" stroke="#40455C" stroke-width="3" stroke-linecap="round" stroke-linejoin="round"/>
<path d="M31.25 65.625C31.25 60.6521 33.2255 55.8829 36.7417 52.3667C40.258 48.8504 45.0271 46.875 50 46.875C54.9729 46.875 59.7421 48.8504 63.2583 52.3667C66.7746 55.8829 68.75 60.6521 68.75 65.625H31.25Z" stroke="#40455C" stroke-width="3" stroke-linecap="round" stroke-linejoin="round"/>
</svg>
