<svg width="100" height="100" viewBox="0 0 100 100" fill="none" xmlns="http://www.w3.org/2000/svg">
<path d="M37.5 54.1667C34.75 55.5417 32.4583 57.5834 30.75 60.1251C29.7917 61.5834 29.7917 63.4167 30.75 64.8751C32.4583 67.4167 34.75 69.4584 37.5 70.8334" stroke="#40455C" stroke-width="3" stroke-linecap="round" stroke-linejoin="round"/>
<path d="M63.375 54.1667C66.125 55.5417 68.4167 57.5834 70.125 60.1251C71.0833 61.5834 71.0833 63.4167 70.125 64.8751C68.4167 67.4167 66.125 69.4584 63.375 70.8334" stroke="#40455C" stroke-width="3" stroke-linecap="round" stroke-linejoin="round"/>
<path d="M37.4997 91.6666H62.4997C83.333 91.6666 91.6663 83.3333 91.6663 62.4999V37.4999C91.6663 16.6666 83.333 8.33325 62.4997 8.33325H37.4997C16.6663 8.33325 8.33301 16.6666 8.33301 37.4999V62.4999C8.33301 83.3333 16.6663 91.6666 37.4997 91.6666Z" stroke="#40455C" stroke-width="3" stroke-linecap="round" stroke-linejoin="round"/>
<path d="M9.29199 33.3749L89.3753 33.3333" stroke="#40455C" stroke-width="3" stroke-linecap="round" stroke-linejoin="round"/>
</svg>
