<svg width="100" height="100" viewBox="0 0 100 100" fill="none" xmlns="http://www.w3.org/2000/svg">
<path d="M4.16699 91.6665H95.8337" stroke="#40455C" stroke-width="3" stroke-miterlimit="10" stroke-linecap="round" stroke-linejoin="round"/>
<path d="M82.417 91.7084V73.125" stroke="#40455C" stroke-width="3" stroke-miterlimit="10" stroke-linecap="round" stroke-linejoin="round"/>
<path d="M82.4997 45.375C77.4164 45.375 73.333 49.4584 73.333 54.5417V63.9999C73.333 69.0832 77.4164 73.1666 82.4997 73.1666C87.5831 73.1666 91.6664 69.0832 91.6664 63.9999V54.5417C91.6664 49.4584 87.5831 45.375 82.4997 45.375Z" stroke="#40455C" stroke-width="3" stroke-miterlimit="10" stroke-linecap="round" stroke-linejoin="round"/>
<path d="M8.75 91.6667V25.1252C8.75 16.7502 12.9169 12.5417 21.2085 12.5417H47.1668C55.4585 12.5417 59.5834 16.7502 59.5834 25.1252V91.6667" stroke="#40455C" stroke-width="3" stroke-miterlimit="10" stroke-linecap="round" stroke-linejoin="round"/>
<path d="M24.167 34.375H44.792" stroke="#40455C" stroke-width="3" stroke-miterlimit="10" stroke-linecap="round" stroke-linejoin="round"/>
<path d="M24.167 50H44.792" stroke="#40455C" stroke-width="3" stroke-miterlimit="10" stroke-linecap="round" stroke-linejoin="round"/>
<path d="M34.375 91.6665V76.0415" stroke="#40455C" stroke-width="3" stroke-miterlimit="10" stroke-linecap="round" stroke-linejoin="round"/>
</svg>
