<svg width="100" height="100" viewBox="0 0 100 100" fill="none" xmlns="http://www.w3.org/2000/svg">
<path d="M8.33301 8.33325H15.583C20.083 8.33325 23.6247 12.2083 23.2497 16.6666L19.7913 58.1666C19.208 64.9582 24.583 70.7915 31.4163 70.7915H75.7913C81.7913 70.7915 87.0413 65.8749 87.4997 59.9166L89.7496 28.6666C90.2496 21.7499 84.9997 16.1249 78.0413 16.1249H24.2497" stroke="#40455C" stroke-width="3" stroke-miterlimit="10" stroke-linecap="round" stroke-linejoin="round"/>
<path d="M67.7083 91.6667C70.5848 91.6667 72.9167 89.3348 72.9167 86.4583C72.9167 83.5819 70.5848 81.25 67.7083 81.25C64.8319 81.25 62.5 83.5819 62.5 86.4583C62.5 89.3348 64.8319 91.6667 67.7083 91.6667Z" stroke="#40455C" stroke-width="3" stroke-miterlimit="10" stroke-linecap="round" stroke-linejoin="round"/>
<path d="M34.3753 91.6667C37.2518 91.6667 39.5837 89.3348 39.5837 86.4583C39.5837 83.5819 37.2518 81.25 34.3753 81.25C31.4988 81.25 29.167 83.5819 29.167 86.4583C29.167 89.3348 31.4988 91.6667 34.3753 91.6667Z" stroke="#40455C" stroke-width="3" stroke-miterlimit="10" stroke-linecap="round" stroke-linejoin="round"/>
<path d="M37.5 33.3333H87.5" stroke="#40455C" stroke-width="3" stroke-miterlimit="10" stroke-linecap="round" stroke-linejoin="round"/>
</svg>
