<svg width="100" height="100" viewBox="0 0 100 100" fill="none" xmlns="http://www.w3.org/2000/svg">
<path d="M41.6663 70.6251H25.8747C11.833 70.6251 8.33301 67.1251 8.33301 53.0834V28.0834C8.33301 14.0417 11.833 10.5417 25.8747 10.5417H69.7497C83.7913 10.5417 87.2913 14.0417 87.2913 28.0834" stroke="#40455C" stroke-width="3" stroke-linecap="round" stroke-linejoin="round"/>
<path d="M41.667 89.4583V70.625" stroke="#40455C" stroke-width="3" stroke-linecap="round" stroke-linejoin="round"/>
<path d="M8.33301 53.9583H41.6663" stroke="#40455C" stroke-width="3" stroke-linecap="round" stroke-linejoin="round"/>
<path d="M28.083 89.4583H41.6663" stroke="#40455C" stroke-width="3" stroke-linecap="round" stroke-linejoin="round"/>
<path d="M91.6663 53.3333V77.125C91.6663 87 89.208 89.4583 79.333 89.4583H64.5413C54.6663 89.4583 52.208 87 52.208 77.125V53.3333C52.208 43.4583 54.6663 41 64.5413 41H79.333C89.208 41 91.6663 43.4583 91.6663 53.3333Z" stroke="#40455C" stroke-width="3" stroke-linecap="round" stroke-linejoin="round"/>
<path d="M71.8524 76.0416H71.8899" stroke="#40455C" stroke-width="3" stroke-linecap="round" stroke-linejoin="round"/>
</svg>
