<svg width="100" height="100" viewBox="0 0 100 100" fill="none" xmlns="http://www.w3.org/2000/svg">
<path d="M9.375 68.75V18.75C9.375 17.0924 10.0335 15.5027 11.2056 14.3306C12.3777 13.1585 13.9674 12.5 15.625 12.5H84.375C86.0325 12.5 87.6225 13.1585 88.7946 14.3306C89.9667 15.5027 90.625 17.0924 90.625 18.75V68.75" stroke="#40455C" stroke-width="3" stroke-linecap="round" stroke-linejoin="round"/>
<path d="M62.4417 68.75C61.9567 68.7508 61.4783 68.8637 61.0446 69.0808C60.6108 69.2975 60.2333 69.6125 59.9417 70C58.7904 71.5512 57.2921 72.8117 55.5667 73.6796C53.8408 74.5479 51.9358 75.0004 50.0042 75.0004C48.0725 75.0004 46.1675 74.5479 44.4417 73.6796C42.7163 72.8117 41.2179 71.5512 40.0667 70C39.7751 69.6125 39.3976 69.2975 38.9638 69.0808C38.53 68.8637 38.0517 68.7508 37.5667 68.75H3.125V75C3.125 78.315 4.44196 81.4946 6.78617 83.8387C9.13037 86.1829 12.3098 87.5 15.625 87.5H84.375C87.69 87.5 90.8696 86.1829 93.2137 83.8387C95.5579 81.4946 96.875 78.315 96.875 75V68.75H62.4417Z" stroke="#40455C" stroke-width="3" stroke-linecap="round" stroke-linejoin="round"/>
<path d="M65.625 37.5C65.625 36.6712 65.2958 35.8763 64.7096 35.2903C64.1237 34.7043 63.3287 34.375 62.5 34.375H56.25V28.125C56.25 27.2962 55.9208 26.5013 55.3346 25.9153C54.7487 25.3292 53.9537 25 53.125 25H46.875C46.0462 25 45.2512 25.3292 44.6654 25.9153C44.0792 26.5013 43.75 27.2962 43.75 28.125V34.375H37.5C36.6712 34.375 35.8763 34.7043 35.2903 35.2903C34.7043 35.8763 34.375 36.6712 34.375 37.5V43.75C34.375 44.5787 34.7043 45.3737 35.2903 45.9596C35.8763 46.5458 36.6712 46.875 37.5 46.875H43.75V53.125C43.75 53.9537 44.0792 54.7487 44.6654 55.3346C45.2512 55.9208 46.0462 56.25 46.875 56.25H53.125C53.9537 56.25 54.7487 55.9208 55.3346 55.3346C55.9208 54.7487 56.25 53.9537 56.25 53.125V46.875H62.5C63.3287 46.875 64.1237 46.5458 64.7096 45.9596C65.2958 45.3737 65.625 44.5787 65.625 43.75V37.5Z" stroke="#40455C" stroke-width="3" stroke-linecap="round" stroke-linejoin="round"/>
</svg>
