<svg width="44" height="44" viewBox="0 0 44 44" fill="none" xmlns="http://www.w3.org/2000/svg">
<rect x="0.5" y="0.5" width="43" height="43" rx="21.5" stroke="#40455C"/>
<path d="M22.0196 12.9102C18.7096 12.9102 16.0196 15.6002 16.0196 18.9102V21.8002C16.0196 22.4102 15.7596 23.3402 15.4496 23.8602L14.2996 25.7702C13.5896 26.9502 14.0796 28.2602 15.3796 28.7002C19.6896 30.1402 24.3396 30.1402 28.6496 28.7002C29.8596 28.3002 30.3896 26.8702 29.7296 25.7702L28.5796 23.8602C28.2796 23.3402 28.0196 22.4102 28.0196 21.8002V18.9102C28.0196 15.6102 25.3196 12.9102 22.0196 12.9102Z" stroke="#40455C" stroke-width="1.5" stroke-miterlimit="10" stroke-linecap="round"/>
<path d="M23.8699 13.1999C23.5599 13.1099 23.2399 13.0399 22.9099 12.9999C21.9499 12.8799 21.0299 12.9499 20.1699 13.1999C20.4599 12.4599 21.1799 11.9399 22.0199 11.9399C22.8599 11.9399 23.5799 12.4599 23.8699 13.1999Z" stroke="#40455C" stroke-width="1.5" stroke-miterlimit="10" stroke-linecap="round" stroke-linejoin="round"/>
<path d="M25.0195 29.0601C25.0195 30.7101 23.6695 32.0601 22.0195 32.0601C21.1995 32.0601 20.4395 31.7201 19.8995 31.1801C19.3595 30.6401 19.0195 29.8801 19.0195 29.0601" stroke="#40455C" stroke-width="1.5" stroke-miterlimit="10"/>
</svg>
