<svg width="59" height="52" viewBox="0 0 59 52" fill="none" xmlns="http://www.w3.org/2000/svg">
<path d="M42 22.4999L37.1 30.7999L25.2 51.0999H17L33 23.7999L29 16.8999L9 51.0999H0L24.6 9.1999L29.5 0.899902L34 8.5999L38 15.4999L42 22.4999Z" fill="#F37436"/>
<path d="M45.1 29.0999C45.4 27.6999 44.6 26.2999 43.1 25.9999C41.7 25.6999 40.3 26.4999 39.9 27.8999C39.6 29.2999 40.4 30.6999 41.9 30.9999C43.3 31.2999 44.7 30.4999 45.1 29.0999Z" fill="#077C93"/>
<path d="M58.9 51.0999H49.2L45.7 45.1999L42.2 51.0999H33.3L41.2 37.5999L46.1 29.2999L50.5 36.8999L58.9 51.0999Z" fill="#5194D0"/>
</svg>
