<svg width="24" height="24" viewBox="0 0 24 24" fill="none" xmlns="http://www.w3.org/2000/svg">
<path d="M6.86194 9.52872C6.98696 9.40374 7.1565 9.33353 7.33327 9.33353C7.51005 9.33353 7.67959 9.40374 7.80461 9.52872L11.9999 13.7241L16.1953 9.52872C16.2568 9.46505 16.3303 9.41426 16.4117 9.37932C16.493 9.34438 16.5805 9.32599 16.669 9.32522C16.7575 9.32445 16.8453 9.34132 16.9272 9.37484C17.0092 9.40836 17.0836 9.45786 17.1462 9.52046C17.2088 9.58305 17.2583 9.65749 17.2918 9.73942C17.3253 9.82135 17.3422 9.90914 17.3414 9.99765C17.3407 10.0862 17.3223 10.1737 17.2873 10.255C17.2524 10.3363 17.2016 10.4099 17.1379 10.4714L12.4713 15.1381C12.3463 15.263 12.1767 15.3332 11.9999 15.3332C11.8232 15.3332 11.6536 15.263 11.5286 15.1381L6.86194 10.4714C6.73696 10.3464 6.66675 10.1768 6.66675 10.0001C6.66675 9.82328 6.73696 9.65374 6.86194 9.52872Z" fill="#333333"/>
</svg>
