<svg width="112" height="36" viewBox="0 0 112 36" fill="none" xmlns="http://www.w3.org/2000/svg">
<path d="M50.8456 32.0101V7.97803H55.7929L67.5329 23.4956V7.97803H72.5586V32.0101H68.4354L55.8706 15.531V32.0101H50.8448H50.8456Z" fill="#333333"/>
<path d="M78.3872 32.0101V7.97803H83.7839V32.0101H78.3872Z" fill="#333333"/>
<path d="M99.6786 12.2695H100.926L93.2914 32.0101H88.6051L98.0158 7.97803H102.589L112 32.0101H107.314L99.6794 12.2695H99.6786ZM105.839 26.3112H94.7658V22.4664H105.839V26.3112Z" fill="#333333"/>
<path d="M28.9874 15.5142L25.6317 21.3033L17.4036 35.5H11.7693L22.815 16.4431L20.0378 11.6512L6.21493 35.5H0L16.93 6.28908L20.2856 0.5L23.3934 5.86212L26.1706 10.654L28.9874 15.5142Z" fill="#333333"/>
<path d="M31.0691 20.1076C31.299 19.1411 30.6957 18.1727 29.7215 17.9446C28.7474 17.7165 27.7712 18.3151 27.5413 19.2815C27.3114 20.248 27.9147 21.2164 28.8889 21.4445C29.8631 21.6726 30.8392 21.0741 31.0691 20.1076Z" fill="#333333"/>
<path d="M40.5711 35.5001H33.8599L31.4705 31.3767L29.0804 35.5001H22.9652L28.4125 26.1011L31.7682 20.312L34.8254 25.5876L40.5711 35.5001Z" fill="#333333"/>
</svg>
