<svg width="32" height="32" viewBox="0 0 32 32" fill="none" xmlns="http://www.w3.org/2000/svg">
<path d="M16 5.99805C21.524 5.99805 26.002 10.476 26.002 16C26.002 21.523 21.524 26 16 26C10.476 26.001 6 21.523 6 16C5.999 10.476 10.476 5.99805 16 5.99805ZM18.94 20.5H13.061C13.713 22.915 14.847 24.502 16.001 24.502C17.154 24.502 18.288 22.914 18.94 20.5ZM11.51 20.5H8.785C9.75092 22.0448 11.1859 23.2397 12.88 23.91C12.358 23.09 11.927 22.064 11.61 20.895L11.508 20.5H11.51ZM23.215 20.5H20.493C20.169 21.835 19.701 23 19.12 23.911C20.7068 23.2834 22.0689 22.1941 23.03 20.784L23.215 20.5ZM11.094 14H7.736L7.731 14.017C7.57658 14.6667 7.49905 15.3323 7.5 16C7.4986 17.0247 7.68291 18.0411 8.044 19H11.217C11.0706 18.0068 10.998 17.004 11 16C11 15.316 11.032 14.646 11.095 13.999L11.094 14ZM19.397 14H12.603C12.4271 15.6654 12.4725 17.3466 12.738 19H19.262C19.5274 17.3466 19.5728 15.6654 19.397 14ZM24.265 14H20.907C20.969 14.647 21.002 15.317 21.002 16C21.0036 17.0041 20.9308 18.0068 20.784 19H23.957C24.3183 18.0412 24.503 17.0248 24.502 16C24.502 15.311 24.42 14.641 24.265 14ZM12.88 8.08805L12.857 8.09605C10.8101 8.91374 9.15905 10.492 8.25 12.5H11.298C11.612 10.748 12.158 9.22205 12.881 8.09005L12.88 8.08805ZM16 7.49705L15.883 7.50205C14.62 7.62005 13.397 9.62105 12.83 12.5H19.172C18.606 9.63005 17.389 7.63105 16.127 7.50505L16 7.49705ZM19.12 8.08705L19.226 8.26205C19.896 9.37405 20.403 10.834 20.701 12.499H23.749C22.8809 10.5831 21.3357 9.05538 19.41 8.20905L19.12 8.08705Z" fill="#333333"/>
</svg>
