<svg width="17" height="16" viewBox="0 0 17 16" fill="none" xmlns="http://www.w3.org/2000/svg">
<path d="M16.0942 1.24976V12.2185C16.0942 12.4423 16.0053 12.6569 15.8471 12.8151C15.6889 12.9734 15.4742 13.0623 15.2505 13.0623C15.0267 13.0623 14.8121 12.9734 14.6538 12.8151C14.4956 12.6569 14.4067 12.4423 14.4067 12.2185V3.28636L2.34742 15.3467C2.1891 15.505 1.97437 15.594 1.75047 15.594C1.52657 15.594 1.31184 15.505 1.15352 15.3467C0.995194 15.1884 0.90625 14.9737 0.90625 14.7498C0.90625 14.5259 0.995194 14.3111 1.15352 14.1528L13.2139 2.09351L4.28172 2.09351C4.05794 2.09351 3.84333 2.00461 3.6851 1.84638C3.52686 1.68814 3.43797 1.47353 3.43797 1.24976C3.43797 1.02598 3.52686 0.811368 3.6851 0.653135C3.84333 0.494901 4.05794 0.406006 4.28172 0.406006L15.2505 0.406006C15.4742 0.406006 15.6889 0.494901 15.8471 0.653135C16.0053 0.811368 16.0942 1.02598 16.0942 1.24976Z" fill="white"/>
</svg>
