<svg width="24" height="24" viewBox="0 0 24 24" fill="none" xmlns="http://www.w3.org/2000/svg">
<mask id="mask0_148_20" style="mask-type:alpha" maskUnits="userSpaceOnUse" x="0" y="0" width="24" height="24">
<rect width="24" height="24" fill="#D9D9D9"/>
</mask>
<g mask="url(#mask0_148_20)">
<path d="M12 20.7C10.8 20.7 9.67082 20.4708 8.61249 20.0125C7.55415 19.5542 6.63332 18.9333 5.84999 18.15C5.06665 17.3667 4.44582 16.4458 3.98749 15.3875C3.52915 14.3292 3.29999 13.2 3.29999 12C3.29999 10.8 3.52915 9.67082 3.98749 8.61249C4.44582 7.55415 5.06665 6.63332 5.84999 5.84999C6.63332 5.06665 7.55415 4.44582 8.61249 3.98749C9.67082 3.52915 10.8 3.29999 12 3.29999C13.2 3.29999 14.3292 3.52915 15.3875 3.98749C16.4458 4.44582 17.3667 5.06665 18.15 5.84999C18.9333 6.63332 19.5542 7.55415 20.0125 8.61249C20.4708 9.67082 20.7 10.8 20.7 12C20.7 13.2 20.4708 14.3292 20.0125 15.3875C19.5542 16.4458 18.9333 17.3667 18.15 18.15C17.3667 18.9333 16.4458 19.5542 15.3875 20.0125C14.3292 20.4708 13.2 20.7 12 20.7ZM12 20.025C12.6333 19.225 13.15 18.45 13.55 17.7C13.95 16.95 14.275 16.1 14.525 15.15H9.47499C9.75832 16.1667 10.0917 17.05 10.475 17.8C10.8583 18.55 11.3667 19.2917 12 20.025ZM11.125 19.95C10.6083 19.4 10.1333 18.6875 9.69999 17.8125C9.26665 16.9375 8.94999 16.05 8.74999 15.15H4.64999C5.24999 16.5167 6.12499 17.625 7.27499 18.475C8.42499 19.325 9.70832 19.8167 11.125 19.95ZM12.875 19.95C14.2917 19.8167 15.575 19.325 16.725 18.475C17.875 17.625 18.75 16.5167 19.35 15.15H15.25C14.9667 16.0667 14.6083 16.9625 14.175 17.8375C13.7417 18.7125 13.3083 19.4167 12.875 19.95ZM4.37499 14.45H8.59999C8.51665 14.0167 8.45832 13.5958 8.42499 13.1875C8.39165 12.7792 8.37499 12.3833 8.37499 12C8.37499 11.6167 8.39165 11.2208 8.42499 10.8125C8.45832 10.4042 8.51665 9.98332 8.59999 9.54999H4.37499C4.25832 9.89999 4.16665 10.2917 4.09999 10.725C4.03332 11.1583 3.99999 11.5833 3.99999 12C3.99999 12.4167 4.03332 12.8417 4.09999 13.275C4.16665 13.7083 4.25832 14.1 4.37499 14.45ZM9.29999 14.45H14.7C14.7833 14.0167 14.8417 13.6042 14.875 13.2125C14.9083 12.8208 14.925 12.4167 14.925 12C14.925 11.5833 14.9083 11.1792 14.875 10.7875C14.8417 10.3958 14.7833 9.98332 14.7 9.54999H9.29999C9.21665 9.98332 9.15832 10.3958 9.12499 10.7875C9.09165 11.1792 9.07499 11.5833 9.07499 12C9.07499 12.4167 9.09165 12.8208 9.12499 13.2125C9.15832 13.6042 9.21665 14.0167 9.29999 14.45ZM15.4 14.45H19.625C19.7417 14.1 19.8333 13.7083 19.9 13.275C19.9667 12.8417 20 12.4167 20 12C20 11.5833 19.9667 11.1583 19.9 10.725C19.8333 10.2917 19.7417 9.89999 19.625 9.54999H15.4C15.4833 9.98332 15.5417 10.4042 15.575 10.8125C15.6083 11.2208 15.625 11.6167 15.625 12C15.625 12.3833 15.6083 12.7792 15.575 13.1875C15.5417 13.5958 15.4833 14.0167 15.4 14.45ZM15.25 8.84999H19.35C18.7333 7.44999 17.8708 6.34165 16.7625 5.52499C15.6542 4.70832 14.3583 4.20832 12.875 4.02499C13.3917 4.65832 13.8583 5.39999 14.275 6.24999C14.6917 7.09999 15.0167 7.96665 15.25 8.84999ZM9.47499 8.84999H14.525C14.2417 7.84999 13.8958 6.95415 13.4875 6.16249C13.0792 5.37082 12.5833 4.64165 12 3.97499C11.4167 4.64165 10.9208 5.37082 10.5125 6.16249C10.1042 6.95415 9.75832 7.84999 9.47499 8.84999ZM4.64999 8.84999H8.74999C8.98332 7.96665 9.30832 7.09999 9.72499 6.24999C10.1417 5.39999 10.6083 4.65832 11.125 4.02499C9.62499 4.20832 8.32499 4.71249 7.22499 5.53749C6.12499 6.36249 5.26665 7.46665 4.64999 8.84999Z" fill="#333333"/>
</g>
</svg>
