<svg width="24" height="24" viewBox="0 0 24 24" fill="none" xmlns="http://www.w3.org/2000/svg">
<g clip-path="url(#clip0_181_76)">
<path d="M20.6169 0H3.38311C1.51467 0 0 1.51467 0 3.38311V20.6169C0 22.4853 1.51467 24 3.38311 24H20.6169C22.4853 24 24 22.4853 24 20.6169V3.38311C24 1.51467 22.4853 0 20.6169 0ZM19.6658 15.8507C19.4827 16.5387 18.9404 17.0809 18.2507 17.2658C17.0027 17.6 12 17.6 12 17.6C12 17.6 6.99733 17.6 5.74933 17.2658C5.06133 17.0809 4.51911 16.5404 4.33422 15.8507C4 14.6027 4 12 4 12C4 12 4 9.39733 4.33422 8.14933C4.51733 7.46133 5.05956 6.91911 5.74933 6.73422C6.99733 6.4 12 6.4 12 6.4C12 6.4 17.0027 6.4 18.2507 6.73422C18.9387 6.91911 19.4809 7.45956 19.6658 8.14933C20 9.39733 20 12 20 12C20 12 20 14.6027 19.6658 15.8507Z" fill="#333333"/>
<path d="M10.4 14.4001L14.5565 12.0001L10.4 9.6001V14.4001Z" fill="#333333"/>
</g>
<defs>
<clipPath id="clip0_181_76">
<rect width="24" height="24" fill="white"/>
</clipPath>
</defs>
</svg>
