<svg width="28" height="28" viewBox="0 0 28 28" fill="none" xmlns="http://www.w3.org/2000/svg">
<path d="M13.2124 19.8333H14.9624V14.9916H19.8333V13.2416H14.9624V8.16659H13.2124V13.2416H8.16659V14.9916H13.2124V19.8333ZM14.0077 25.6666C12.399 25.6666 10.8872 25.3603 9.47226 24.7478C8.05737 24.1353 6.82006 23.2992 5.76034 22.2395C4.70061 21.1798 3.8645 19.9417 3.252 18.5254C2.6395 17.1091 2.33325 15.5957 2.33325 13.9853C2.33325 12.375 2.6395 10.8616 3.252 9.44528C3.8645 8.02893 4.70061 6.79575 5.76034 5.74575C6.82006 4.69575 8.0581 3.8645 9.47445 3.252C10.8908 2.6395 12.4041 2.33325 14.0145 2.33325C15.6249 2.33325 17.1382 2.6395 18.5546 3.252C19.9709 3.8645 21.2041 4.69575 22.2541 5.74575C23.3041 6.79575 24.1353 8.03047 24.7478 9.44992C25.3603 10.8694 25.6666 12.3834 25.6666 13.9922C25.6666 15.6009 25.3603 17.1127 24.7478 18.5276C24.1353 19.9425 23.3041 21.178 22.2541 22.2341C21.2041 23.2903 19.9694 24.1264 18.5499 24.7425C17.1305 25.3585 15.6164 25.6666 14.0077 25.6666Z" fill="#F78349"/>
</svg>
