<svg width="24" height="24" viewBox="0 0 24 24" fill="none" xmlns="http://www.w3.org/2000/svg">
<g clip-path="url(#clip0_181_70)">
<path d="M20.6169 0H3.38311C1.51467 0 0 1.51467 0 3.38311V20.6169C0 22.4853 1.51467 24 3.38311 24H20.6169C22.4853 24 24 22.4853 24 20.6169V3.38311C24 1.51467 22.4853 0 20.6169 0ZM15.3476 7.28889H13.7671C13.2089 7.28889 13.0933 7.51644 13.0933 8.09422V9.48978H15.3493L15.1324 11.9396H13.0951V19.2551H10.1742V11.9716H8.65422V9.49156H10.1742V7.53956C10.1742 5.70667 11.1538 4.75022 13.328 4.75022H15.3511V7.29244L15.3476 7.28889Z" fill="#333333"/>
</g>
<defs>
<clipPath id="clip0_181_70">
<rect width="24" height="24" fill="white"/>
</clipPath>
</defs>
</svg>
