<svg width="24" height="24" viewBox="0 0 24 24" fill="none" xmlns="http://www.w3.org/2000/svg">
<g clip-path="url(#clip0_181_79)">
<path d="M20.6169 0H3.38311C1.51467 0 0 1.51467 0 3.38311V20.6169C0 22.4853 1.51467 24 3.38311 24H20.6169C22.4853 24 24 22.4853 24 20.6169V3.38311C24 1.51467 22.4853 0 20.6169 0ZM18.0747 10.7342C17.6622 10.7342 17.2569 10.6791 16.8569 10.5867C16.1671 10.4284 15.5324 10.1493 14.9422 9.76178C14.912 9.74222 14.8782 9.69778 14.8462 9.71378C14.8053 9.73333 14.8267 9.78667 14.8267 9.824C14.8267 11.4098 14.832 12.9956 14.8231 14.5796C14.816 15.6871 14.464 16.6791 13.7387 17.5236C12.9671 18.4213 11.9893 18.9422 10.8142 19.0844C9.90933 19.1947 9.04889 19.0311 8.23289 18.6276C8.10133 18.5618 7.97511 18.4871 7.856 18.3982C7.81867 18.3644 7.78133 18.3324 7.744 18.2987C7.65511 18.2613 7.584 18.1956 7.50933 18.1369C6.78045 17.5591 6.26844 16.832 5.98578 15.9449C5.888 15.6356 5.82578 15.3209 5.79733 14.9973C5.776 14.7644 5.77244 14.5298 5.78844 14.2969C5.824 13.76 5.95022 13.2444 6.17244 12.752C6.40356 12.2382 6.72 11.7831 7.12356 11.3884C7.59289 10.9298 8.13511 10.5849 8.75378 10.3627C9.14133 10.224 9.53956 10.1387 9.952 10.1084C10.2507 10.0871 10.5458 10.0924 10.8427 10.128C10.8818 10.1333 10.9067 10.1404 10.9049 10.1884C10.9013 10.3538 10.9013 10.5173 10.9013 10.6827C10.9049 10.6862 10.9262 11.9342 10.9262 12.5049C10.9262 12.5244 10.9262 12.5458 10.9262 12.5653C10.9227 12.6222 10.8942 12.6418 10.8409 12.6258C10.6844 12.5813 10.5244 12.56 10.3627 12.5529C10.112 12.5387 9.86489 12.576 9.63022 12.6613C8.84444 12.9511 8.368 13.5129 8.26844 14.3431C8.17067 15.1591 8.49244 15.8133 9.17156 16.2844C9.22845 16.3236 9.28711 16.3609 9.34044 16.4053C9.35289 16.4178 9.36533 16.4284 9.37956 16.4409C9.53778 16.5031 9.696 16.5671 9.86311 16.6009C10.3964 16.7058 10.8978 16.6258 11.3618 16.3396C11.8951 16.0107 12.2116 15.5289 12.3218 14.912C12.3431 14.7964 12.3467 14.6773 12.3467 14.5582C12.3467 11.3742 12.3467 8.192 12.3467 5.008C12.3467 4.86044 12.3253 4.87822 12.4729 4.87822C13.2071 4.87822 13.9413 4.87822 14.6756 4.87822C14.6933 4.87822 14.7093 4.87822 14.7271 4.87822C14.8018 4.87822 14.8036 4.87822 14.8036 4.95644C14.8036 5.12711 14.8729 5.52533 14.88 5.55733C15.1982 7.16622 17.0738 8.15111 17.6516 8.23822C17.8116 8.26311 17.9716 8.28089 18.1333 8.28089C18.2009 8.28089 18.2027 8.28267 18.2027 8.34667C18.2027 8.496 18.2329 10.0356 18.2311 10.5991C18.2311 10.7289 18.2133 10.7342 18.0836 10.7342H18.0747Z" fill="#333333"/>
</g>
<defs>
<clipPath id="clip0_181_79">
<rect width="24" height="24" fill="white"/>
</clipPath>
</defs>
</svg>
