<svg width="39" height="30" viewBox="0 0 39 30" fill="none" xmlns="http://www.w3.org/2000/svg">
<path d="M10.875 14.25C14.5 15.375 16.3125 17.9375 16.3125 21.9375C16.3125 24.0625 15.5625 25.875 14.0625 27.375C12.5625 28.75 10.625 29.4375 8.25 29.4375C5.75 29.4375 3.75 28.625 2.25 27C0.75 25.375 0 23.1875 0 20.4375C0 14.0625 4.125 7.25 12.375 0L17.0625 3.1875C14.0625 7.8125 12 11.5 10.875 14.25ZM32.4375 14.25C36.0625 15.375 37.875 17.9375 37.875 21.9375C37.875 24.0625 37.125 25.875 35.625 27.375C34.125 28.75 32.1875 29.4375 29.8125 29.4375C27.3125 29.4375 25.3125 28.625 23.8125 27C22.3125 25.375 21.5625 23.1875 21.5625 20.4375C21.5625 14.0625 25.6875 7.25 33.9375 0L38.625 3.1875C35.625 7.8125 33.5625 11.5 32.4375 14.25Z" fill="#F6F6F6"/>
</svg>
