<svg width="39" height="30" viewBox="0 0 39 30" fill="none" xmlns="http://www.w3.org/2000/svg">
<path d="M8.8125 0C11.3125 0 13.3125 0.812499 14.8125 2.4375C16.3125 4.0625 17.0625 6.25 17.0625 9C17.0625 12.5 15.875 16 13.5 19.5C11.125 23 8.125 26.3125 4.5 29.4375L0 26.4375C0.25 25.9375 1.125 24.5 2.625 22.125C4.125 19.625 5.3125 17.3125 6.1875 15.1875C2.5625 14.0625 0.75 11.5 0.75 7.5C0.75 5.5 1.5 3.74999 3 2.25C4.5 0.749998 6.4375 0 8.8125 0ZM30.375 0C32.875 0 34.875 0.812499 36.375 2.4375C37.875 4.0625 38.625 6.25 38.625 9C38.625 12.5 37.4375 16 35.0625 19.5C32.6875 23 29.6875 26.3125 26.0625 29.4375L21.5625 26.4375C21.8125 25.9375 22.6875 24.5 24.1875 22.125C25.6875 19.625 26.875 17.3125 27.75 15.1875C24.125 14.0625 22.3125 11.5 22.3125 7.5C22.3125 5.5 23.0625 3.74999 24.5625 2.25C26.0625 0.749998 28 0 30.375 0Z" fill="#F6F6F6"/>
</svg>
