<svg width="24" height="24" viewBox="0 0 24 24" fill="none" xmlns="http://www.w3.org/2000/svg">
<g clip-path="url(#clip0_181_72)">
<path d="M17.8898 7.54335C17.7529 7.19135 17.5893 6.93891 17.3244 6.67402C17.0595 6.40913 16.8089 6.24558 16.4551 6.10869C16.1884 6.00558 15.7884 5.88291 15.0524 5.84913C14.256 5.81358 14.016 5.80469 12 5.80469C9.98399 5.80469 9.74399 5.8118 8.94755 5.84913C8.21155 5.88291 7.81155 6.00558 7.54488 6.10869C7.19288 6.24558 6.94044 6.40913 6.67555 6.67402C6.41066 6.93891 6.2471 7.18958 6.11021 7.54335C6.0071 7.81002 5.88444 8.21002 5.85066 8.94602C5.8151 9.74247 5.80621 9.98246 5.80621 11.9985C5.80621 14.0145 5.81332 14.2545 5.85066 15.0509C5.88444 15.7869 6.0071 16.1869 6.11021 16.4536C6.2471 16.8056 6.41066 17.058 6.67555 17.3229C6.94044 17.5878 7.1911 17.7514 7.54488 17.8882C7.81155 17.9914 8.21155 18.114 8.94755 18.1478C9.74399 18.1834 9.98221 18.1922 12 18.1922C14.0178 18.1922 14.256 18.1851 15.0524 18.1478C15.7884 18.114 16.1884 17.9914 16.4551 17.8882C16.8071 17.7514 17.0595 17.5878 17.3244 17.3229C17.5893 17.058 17.7529 16.8074 17.8898 16.4536C17.9929 16.1869 18.1155 15.7869 18.1493 15.0509C18.1849 14.2545 18.1938 14.0145 18.1938 11.9985C18.1938 9.98246 18.1867 9.74247 18.1493 8.94602C18.1155 8.21002 17.9929 7.81002 17.8898 7.54335ZM12 15.8794C9.85777 15.8794 8.12088 14.1425 8.12088 12.0002C8.12088 9.85802 9.85777 8.12113 12 8.12113C14.1422 8.12113 15.8791 9.85802 15.8791 12.0002C15.8791 14.1425 14.1422 15.8794 12 15.8794ZM16.0338 8.87313C15.5324 8.87313 15.1271 8.4678 15.1271 7.96647C15.1271 7.46513 15.5324 7.0598 16.0338 7.0598C16.5351 7.0598 16.9404 7.46513 16.9404 7.96647C16.9404 8.4678 16.5351 8.87313 16.0338 8.87313Z" fill="#333333"/>
<path d="M12 14.5192C13.3913 14.5192 14.5191 13.3913 14.5191 12.0001C14.5191 10.6088 13.3913 9.48096 12 9.48096C10.6087 9.48096 9.4809 10.6088 9.4809 12.0001C9.4809 13.3913 10.6087 14.5192 12 14.5192Z" fill="#333333"/>
<path d="M20.6169 0H3.38311C1.51467 0 0 1.51467 0 3.38311V20.6169C0 22.4853 1.51467 24 3.38311 24H20.6169C22.4853 24 24 22.4853 24 20.6169V3.38311C24 1.51467 22.4853 0 20.6169 0ZM19.5093 15.1147C19.472 15.9182 19.3458 16.4676 19.1573 16.9493C18.9636 17.4453 18.7058 17.8667 18.2862 18.288C17.8667 18.7076 17.4453 18.9671 16.9476 19.1591C16.4676 19.3458 15.9182 19.4738 15.1129 19.5111C14.3076 19.5484 14.0498 19.5573 11.9982 19.5573C9.94667 19.5573 9.68889 19.5484 8.88356 19.5111C8.08 19.4738 7.53067 19.3476 7.04889 19.1591C6.55289 18.9653 6.13156 18.7076 5.71022 18.288C5.29067 17.8684 5.03111 17.4471 4.83911 16.9493C4.65244 16.4693 4.52444 15.92 4.48711 15.1147C4.44978 14.3093 4.44089 14.0516 4.44089 12C4.44089 9.94844 4.44978 9.69067 4.48711 8.88533C4.52444 8.08178 4.65067 7.53244 4.83911 7.05067C5.03289 6.55467 5.29067 6.13333 5.71022 5.712C6.12978 5.29244 6.55111 5.03289 7.04889 4.84089C7.52889 4.65422 8.07822 4.52622 8.88356 4.48889C9.68889 4.45156 9.94667 4.44267 11.9982 4.44267C14.0498 4.44267 14.3076 4.45156 15.1129 4.48889C15.9164 4.52622 16.4658 4.65244 16.9476 4.84089C17.4436 5.03467 17.8649 5.29244 18.2862 5.712C18.7058 6.13156 18.9653 6.55289 19.1573 7.05067C19.344 7.53067 19.472 8.08 19.5093 8.88533C19.5467 9.69067 19.5556 9.94844 19.5556 12C19.5556 14.0516 19.5467 14.3093 19.5093 15.1147Z" fill="#333333"/>
</g>
<defs>
<clipPath id="clip0_181_72">
<rect width="24" height="24" fill="white"/>
</clipPath>
</defs>
</svg>
