<svg width="28" height="28" viewBox="0 0 28 28" fill="none" xmlns="http://www.w3.org/2000/svg">
<path d="M14 5.66504C18.6033 5.66504 22.335 9.39671 22.335 14C22.335 18.6025 18.6033 22.3334 14 22.3334C9.39667 22.3342 5.66667 18.6025 5.66667 14C5.66584 9.39671 9.39667 5.66504 14 5.66504ZM16.45 17.75H11.5508C12.0942 19.7625 13.0392 21.085 14.0008 21.085C14.9617 21.085 15.9067 19.7617 16.45 17.75ZM10.2583 17.75H7.98751C8.79244 19.0373 9.98829 20.0331 11.4 20.5917C10.965 19.9084 10.6058 19.0534 10.3417 18.0792L10.2567 17.75H10.2583ZM20.0125 17.75H17.7442C17.4742 18.8625 17.0842 19.8334 16.6 20.5925C17.9224 20.0695 19.0574 19.1618 19.8583 17.9867L20.0125 17.75ZM9.91167 12.3334H7.11334L7.10917 12.3475C6.98049 12.8889 6.91588 13.4436 6.91667 14C6.9155 14.8539 7.0691 15.7009 7.37001 16.5H10.0142C9.89215 15.6723 9.83171 14.8367 9.83334 14C9.83334 13.43 9.86001 12.8717 9.91251 12.3325L9.91167 12.3334ZM16.8308 12.3334H11.1692C11.0226 13.7211 11.0604 15.1222 11.2817 16.5H16.7183C16.9395 15.1222 16.9774 13.7211 16.8308 12.3334ZM20.8875 12.3334H18.0892C18.1408 12.8725 18.1683 13.4309 18.1683 14C18.1697 14.8367 18.109 15.6723 17.9867 16.5H20.6308C20.932 15.701 21.0858 14.854 21.085 14C21.085 13.4259 21.0167 12.8675 20.8875 12.3334ZM11.4 7.40671L11.3808 7.41337C9.67505 8.09479 8.29921 9.41 7.54167 11.0834H10.0817C10.3433 9.62337 10.7983 8.35171 11.4008 7.40837L11.4 7.40671ZM14 6.91421L13.9025 6.91837C12.85 7.01671 11.8308 8.68421 11.3583 11.0834H16.6433C16.1717 8.69171 15.1575 7.02587 14.1058 6.92087L14 6.91421ZM16.6 7.40587L16.6883 7.55171C17.2467 8.47837 17.6692 9.69504 17.9175 11.0825H20.4575C19.7341 9.48594 18.4464 8.21281 16.8417 7.50754L16.6 7.40587Z" fill="#333333"/>
</svg>
