<?xml version="1.0" encoding="utf-8"?>
<!-- Generator: Adobe Illustrator 16.0.3, SVG Export Plug-In . SVG Version: 6.00 Build 0)  -->
<!DOCTYPE svg PUBLIC "-//W3C//DTD SVG 1.1//EN" "http://www.w3.org/Graphics/SVG/1.1/DTD/svg11.dtd">
<svg version="1.1" id="Layer_1" xmlns="http://www.w3.org/2000/svg" xmlns:xlink="http://www.w3.org/1999/xlink" x="0px" y="0px"
	 width="150px" height="47.5px" viewBox="-15 -4.75 150 47.5" enable-background="new -15 -4.75 150 47.5" xml:space="preserve">
<path fill="#FFFFFF" d="M53.097,38.014V5.399h6.625l15.723,21.06V5.399h6.731v32.615h-5.521L59.827,15.649v22.364H53.097
	L53.097,38.014z"/>
<path fill="#FFFFFF" d="M89.982,38.014V5.399h7.229v32.615H89.982z"/>
<path fill="#FFFFFF" d="M118.497,11.223h1.671l-10.225,26.791h-6.276l12.604-32.615h6.125L135,38.014h-6.277L118.497,11.223
	L118.497,11.223z M126.748,30.279h-14.829v-5.217h14.829V30.279z"/>
<path fill="#FFFFFF" d="M23.823,15.626l-4.495,7.856L8.308,42.75H0.762l14.794-25.863l-3.72-6.503L-6.677,42.75H-15L7.674,3.106
	l4.494-7.856l4.163,7.277L20.05,9.03L23.823,15.626z"/>
<path fill="#FFFFFF" d="M26.61,21.86c0.308-1.313-0.5-2.626-1.805-2.936s-2.612,0.502-2.92,1.814
	c-0.308,1.313,0.5,2.626,1.805,2.937C24.995,23.984,26.303,23.172,26.61,21.86z"/>
<path fill="#FFFFFF" d="M39.336,42.75h-8.989l-3.2-5.596l-3.201,5.596h-8.19l7.295-12.756l4.494-7.857l4.095,7.161L39.336,42.75z"/>
</svg>
