<svg width="60" height="60" viewBox="0 0 60 60" fill="none" xmlns="http://www.w3.org/2000/svg">
<path d="M40.2616 38.1367L38.2833 40.0933C36.825 41.5233 34.9333 43.3633 32.6066 45.6133C31.9073 46.2895 30.9727 46.6675 30 46.6675C29.0272 46.6675 28.0926 46.2895 27.3933 45.6133L21.575 39.9533C20.8416 39.235 20.2316 38.63 19.7383 38.1367C17.7089 36.1071 16.3269 33.5214 15.767 30.7064C15.2072 27.8915 15.4946 24.9737 16.593 22.3221C17.6914 19.6705 19.5514 17.4042 21.9378 15.8097C24.3242 14.2151 27.1299 13.3641 30 13.3641C32.87 13.3641 35.6757 14.2151 38.0621 15.8097C40.4485 17.4042 42.3085 19.6705 43.4069 22.3221C44.5053 24.9737 44.7927 27.8915 44.2329 30.7064C43.673 33.5214 42.291 36.1071 40.2616 38.1367ZM34.1666 28.3333C34.1666 27.2283 33.7276 26.1685 32.9462 25.3871C32.1648 24.6057 31.105 24.1667 30 24.1667C28.8949 24.1667 27.8351 24.6057 27.0537 25.3871C26.2723 26.1685 25.8333 27.2283 25.8333 28.3333C25.8333 29.4384 26.2723 30.4982 27.0537 31.2796C27.8351 32.061 28.8949 32.5 30 32.5C31.105 32.5 32.1648 32.061 32.9462 31.2796C33.7276 30.4982 34.1666 29.4384 34.1666 28.3333Z" fill="white"/>
</svg>
