<svg width="48" height="48" viewBox="0 0 48 48" fill="none" xmlns="http://www.w3.org/2000/svg">
<rect width="48" height="48" rx="24" fill="white" fill-opacity="0.1"/>
<path d="M24.2248 16.6668C24.7143 16.6696 25.939 16.6815 27.2406 16.7337L27.7026 16.7539C29.0126 16.8153 30.3216 16.9216 30.9715 17.1022C31.8377 17.3461 32.5179 18.0556 32.748 18.9557C33.1146 20.3857 33.1605 23.1742 33.166 23.8498L33.1669 23.9891V24.1486C33.1605 24.8242 33.1146 27.6136 32.748 29.0427C32.5151 29.9456 31.8341 30.6561 30.9715 30.8962C30.3216 31.0768 29.0126 31.1831 27.7026 31.2446L27.2406 31.2656C25.939 31.317 24.7143 31.3298 24.2248 31.3316L24.0094 31.3326H23.7756C22.7398 31.3261 18.4076 31.2794 17.029 30.8962C16.1636 30.6524 15.4826 29.9429 15.2525 29.0427C14.8858 27.6127 14.84 24.8242 14.8345 24.1486V23.8498C14.84 23.1742 14.8858 20.3848 15.2525 18.9557C15.4853 18.0528 16.1664 17.3424 17.0299 17.1031C18.4076 16.7191 22.7407 16.6723 23.7766 16.6668H24.2248ZM22.1669 20.7918V27.2085L27.6669 24.0001L22.1669 20.7918Z" fill="#FCFCFD"/>
</svg>
