<svg width="48" height="48" viewBox="0 0 48 48" fill="none" xmlns="http://www.w3.org/2000/svg">
<rect width="48" height="48" rx="24" fill="white" fill-opacity="0.1"/>
<path d="M27.6667 20.5576V27.208C27.6664 28.4455 27.2808 29.6523 26.5634 30.6607C25.846 31.6691 24.8324 32.4291 23.6634 32.8351C22.4944 33.2412 21.2279 33.2732 20.0399 32.9267C18.8519 32.5801 17.8012 31.8723 17.0338 30.9014C16.2664 29.9305 15.8204 28.7447 15.7577 27.5088C15.6949 26.2728 16.0186 25.048 16.6837 24.0044C17.3488 22.9608 18.3224 22.1502 19.4692 21.6851C20.616 21.22 21.8792 21.1236 23.0833 21.4092V24.3086C22.4553 24.0107 21.7474 23.9248 21.0663 24.0639C20.3852 24.203 19.7677 24.5596 19.3068 25.0799C18.8458 25.6003 18.5663 26.2563 18.5104 26.9492C18.4545 27.6421 18.6251 28.3344 18.9966 28.922C19.3681 29.5095 19.9204 29.9605 20.5704 30.2071C21.2204 30.4537 21.9328 30.4824 22.6006 30.2891C23.2683 30.0958 23.8552 29.6908 24.2729 29.1351C24.6906 28.5795 24.9165 27.9032 24.9167 27.208V14.833H27.6667C27.6667 16.0486 28.1496 17.2144 29.0091 18.0739C29.8686 18.9335 31.0344 19.4163 32.25 19.4163V22.1663C30.5834 22.1688 28.9661 21.6012 27.6667 20.5576Z" fill="#FCFCFD"/>
</svg>
