<svg width="48" height="48" viewBox="0 0 48 48" fill="none" xmlns="http://www.w3.org/2000/svg">
<rect width="48" height="48" rx="24" fill="white" fill-opacity="0.1"/>
<path d="M24.944 14.8343C25.6129 14.8318 26.2818 14.8385 26.9506 14.8545L27.1284 14.8609C27.3338 14.8682 27.5363 14.8774 27.7811 14.8884C28.7564 14.9342 29.4219 15.0882 30.0058 15.3147C30.6108 15.5475 31.1205 15.8628 31.6302 16.3725C32.0962 16.8305 32.4568 17.3844 32.6871 17.9959C32.9135 18.5798 33.0675 19.2462 33.1133 20.2216C33.1243 20.4654 33.1335 20.6689 33.1408 20.8742L33.1463 21.0521C33.1626 21.7205 33.1697 22.3891 33.1674 23.0577L33.1683 23.7416V24.9424C33.1706 25.6113 33.1636 26.2803 33.1473 26.949L33.1418 27.1268C33.1344 27.3322 33.1253 27.5347 33.1143 27.7795C33.0684 28.7548 32.9126 29.4203 32.6871 30.0042C32.4576 30.6164 32.0968 31.1708 31.6302 31.6286C31.1718 32.0945 30.6175 32.4552 30.0058 32.6855C29.4219 32.9119 28.7564 33.0659 27.7811 33.1117C27.5363 33.1227 27.3338 33.1319 27.1284 33.1392L26.9506 33.1447C26.2819 33.161 25.6129 33.1681 24.944 33.1658L24.2602 33.1667H23.0603C22.3913 33.169 21.7224 33.162 21.0537 33.1457L20.8758 33.1402C20.6582 33.1323 20.4407 33.1231 20.2232 33.1127C19.2478 33.0668 18.5823 32.911 17.9975 32.6855C17.3858 32.4557 16.8317 32.095 16.3741 31.6286C15.9075 31.1705 15.5465 30.6162 15.3163 30.0042C15.0898 29.4203 14.9358 28.7548 14.89 27.7795C14.8798 27.562 14.8706 27.3444 14.8625 27.1268L14.8579 26.949C14.841 26.2803 14.8334 25.6113 14.835 24.9424V23.0577C14.8324 22.3891 14.8392 21.7205 14.8552 21.0521L14.8616 20.8742C14.8689 20.6689 14.8781 20.4654 14.8891 20.2216C14.9349 19.2453 15.0889 18.5807 15.3153 17.9959C15.5458 17.3841 15.9075 16.8303 16.375 16.3734C16.8323 15.9066 17.386 15.5453 17.9975 15.3147C18.5823 15.0882 19.2469 14.9342 20.2232 14.8884L20.8758 14.8609L21.0537 14.8563C21.7221 14.8394 22.3907 14.8318 23.0593 14.8334L24.944 14.8343ZM24.0017 19.4177C23.3944 19.4091 22.7914 19.5213 22.2279 19.7477C21.6643 19.9742 21.1514 20.3104 20.7189 20.7368C20.2865 21.1632 19.943 21.6713 19.7086 22.2316C19.4742 22.7919 19.3535 23.3932 19.3535 24.0005C19.3535 24.6079 19.4742 25.2092 19.7086 25.7695C19.943 26.3297 20.2865 26.8379 20.7189 27.2643C21.1514 27.6907 21.6643 28.0269 22.2279 28.2533C22.7914 28.4798 23.3944 28.592 24.0017 28.5834C25.2172 28.5834 26.383 28.1005 27.2426 27.241C28.1021 26.3814 28.585 25.2156 28.585 24.0001C28.585 22.7845 28.1021 21.6187 27.2426 20.7592C26.383 19.8996 25.2172 19.4177 24.0017 19.4177ZM24.0017 21.251C24.367 21.2443 24.7299 21.3104 25.0694 21.4455C25.4089 21.5806 25.718 21.782 25.9787 22.038C26.2395 22.2939 26.4466 22.5992 26.588 22.9361C26.7294 23.273 26.8023 23.6347 26.8023 24.0001C26.8024 24.3654 26.7296 24.7271 26.5883 25.0641C26.447 25.401 26.24 25.7064 25.9794 25.9624C25.7187 26.2184 25.4097 26.42 25.0702 26.5552C24.7308 26.6904 24.3679 26.7567 24.0026 26.7501C23.2732 26.7501 22.5738 26.4603 22.058 25.9446C21.5423 25.4289 21.2526 24.7294 21.2526 24.0001C21.2526 23.2707 21.5423 22.5712 22.058 22.0555C22.5738 21.5398 23.2732 21.2501 24.0026 21.2501L24.0017 21.251ZM28.8142 18.0427C28.5184 18.0545 28.2388 18.1803 28.0337 18.3937C27.8287 18.6071 27.7142 18.8916 27.7142 19.1876C27.7142 19.4835 27.8287 19.768 28.0337 19.9814C28.2388 20.1948 28.5184 20.3206 28.8142 20.3325C29.1181 20.3325 29.4095 20.2118 29.6244 19.9969C29.8393 19.782 29.96 19.4905 29.96 19.1867C29.96 18.8828 29.8393 18.5913 29.6244 18.3764C29.4095 18.1615 29.1181 18.0408 28.8142 18.0408V18.0427Z" fill="#FCFCFD"/>
</svg>
