<svg width="48" height="48" viewBox="0 0 48 48" fill="none" xmlns="http://www.w3.org/2000/svg">
<rect width="48" height="48" rx="24" fill="white" fill-opacity="0.1"/>
<path d="M24.0009 14.833C18.9381 14.833 14.8342 18.9369 14.8342 23.9997C14.8342 28.5748 18.1865 32.367 22.5691 33.0545V26.6498H20.2407V23.9997H22.5691V21.9803C22.5691 19.6831 23.9367 18.4144 26.0313 18.4144C27.0341 18.4144 28.0828 18.5932 28.0828 18.5932V20.8482H26.9278C25.7884 20.8482 25.4336 21.5549 25.4336 22.28V23.9997H27.9756L27.5695 26.6488H25.4336V33.0545C29.8144 32.367 33.1666 28.5748 33.1666 23.9997C33.1666 18.9369 29.0636 14.833 24.0009 14.833Z" fill="#FCFCFD"/>
</svg>
