<svg width="281" height="285" viewBox="0 0 281 285" fill="none" xmlns="http://www.w3.org/2000/svg">
<path fill-rule="evenodd" clip-rule="evenodd" d="M75.7546 0.303223H0.414062V15.9143H60.1435L60.1435 274.516H75.7546L75.7546 15.9143V8.44817V0.303223Z" fill="white"/>
<path d="M39.1025 38.9917L39.1025 241.257L23.4914 241.257L23.4914 38.9917L39.1025 38.9917Z" fill="#68708C"/>
<path fill-rule="evenodd" clip-rule="evenodd" d="M195.743 15.9143H187.598C149.362 15.9143 118.366 46.9105 118.366 85.1462V199.854C118.366 238.09 149.362 269.086 187.598 269.086H195.743C233.979 269.086 264.975 238.09 264.975 199.854V85.1462C264.975 46.9105 233.979 15.9143 195.743 15.9143ZM187.598 0.303223C140.74 0.303223 102.755 38.2888 102.755 85.1462V199.854C102.755 246.711 140.74 284.697 187.598 284.697H195.743C242.6 284.697 280.586 246.711 280.586 199.854V85.1462C280.586 38.2887 242.6 0.303223 195.743 0.303223H187.598Z" fill="white"/>
<path d="M163.842 88.8793C163.842 73.6975 176.149 61.3901 191.331 61.3901C206.513 61.3901 218.82 73.6974 218.82 88.8793V196.8C218.82 211.981 206.513 224.289 191.331 224.289C176.149 224.289 163.842 211.981 163.842 196.8V88.8793Z" fill="#AAC7E8"/>
</svg>
