<svg width="120" height="38" viewBox="0 0 120 38" fill="none" xmlns="http://www.w3.org/2000/svg">
<path d="M54.4773 34.211V8.11899H59.778L72.3566 24.9666V8.11899H77.7413V34.211H73.3235L59.8613 16.3193V34.211H54.4766H54.4773Z" fill="white"/>
<path d="M83.9862 34.211V8.11899H89.7684V34.211H83.9862Z" fill="white"/>
<path d="M106.798 12.7783H108.135L99.955 34.211H94.934L105.017 8.11899H109.917L120 34.211H114.979L106.799 12.7783H106.798ZM113.399 28.0236H101.535V23.8492H113.399V28.0236Z" fill="white"/>
<path d="M31.0579 16.3012L27.4626 22.5865L18.6467 38H12.61L24.4446 17.3096L21.4691 12.107L6.65885 38H0L18.1392 6.28529L21.7346 0L25.0644 5.82173L28.0399 11.0243L31.0579 16.3012Z" fill="white"/>
<path d="M33.2883 21.2882C33.5347 20.2389 32.8882 19.1875 31.8445 18.9398C30.8007 18.6922 29.7549 19.342 29.5086 20.3914C29.2622 21.4407 29.9086 22.4921 30.9524 22.7398C31.9961 22.9874 33.042 22.3375 33.2883 21.2882Z" fill="white"/>
<path d="M43.4691 38H36.2784L33.7184 33.5231L31.1576 38H24.6056L30.442 27.7954L34.0373 21.5101L37.313 27.2379L43.4691 38Z" fill="white"/>
</svg>
