<svg width="74" height="63" viewBox="0 0 74 63" fill="none" xmlns="http://www.w3.org/2000/svg">
<path d="M52.7877 27.0256L46.6769 37.446L31.6929 63H21.4326L41.5474 28.6975L36.49 20.0722L11.3178 63H0L30.8304 10.4204L36.9413 0L42.6008 9.65182L47.6582 18.2772L52.7877 27.0256Z" fill="#F37436"/>
<path d="M56.5786 35.2935C56.9973 33.5539 55.8986 31.8107 54.1246 31.4001C52.3506 30.9895 50.5731 32.067 50.1543 33.8066C49.7356 35.5463 50.8343 37.2894 52.6084 37.7C54.3824 38.1106 56.1599 37.0332 56.5786 35.2935Z" fill="#077C93"/>
<path d="M73.8825 63.0002H61.6609L57.3098 55.578L52.9573 63.0002H41.8211L51.741 46.082L57.8518 35.6616L63.4192 45.1576L73.8825 63.0002Z" fill="#5194D0"/>
</svg>
