<?xml version="1.0" encoding="utf-8"?>
<!-- Generator: Adobe Illustrator 27.8.1, SVG Export Plug-In . SVG Version: 6.00 Build 0)  -->
<svg version="1.1"
	 id="svg51" xmlns:dc="http://purl.org/dc/elements/1.1/" xmlns:rdf="http://www.w3.org/1999/02/22-rdf-syntax-ns#" xmlns:cc="http://creativecommons.org/ns#"
	 xmlns="http://www.w3.org/2000/svg" xmlns:xlink="http://www.w3.org/1999/xlink" x="0px" y="0px" viewBox="0 0 175 50"
	 style="enable-background:new 0 0 175 50;" xml:space="preserve">
<style type="text/css">
	.st0{fill:#FFFFFF;}
	.st1{fill:#EB3131;}
	.st2{fill:#F6B60B;}
	.st3{fill:#5778C5;}
	.st4{fill:#3BAD49;}
	.st5{fill:#FFFFFF;stroke:#FFFFFF;stroke-width:0.2667;stroke-miterlimit:10;}
</style>
<rect width="175" height="50"/>
<path id="path35" class="st0" d="M136.8,37.5h2.3V21.9h-2.3V37.5z M157.8,27.5l-2.7,6.8H155l-2.8-6.8h-2.5l4.2,9.5l-2.4,5.3h2.4
	l6.4-14.7L157.8,27.5z M144.5,35.8c-0.8,0-1.8-0.4-1.8-1.3c0-1.2,1.3-1.7,2.5-1.7c1,0,1.5,0.2,2.1,0.5
	C147.1,34.7,145.9,35.8,144.5,35.8L144.5,35.8z M144.8,27.2c-1.7,0-3.4,0.7-4.2,2.4l2.1,0.9c0.4-0.9,1.3-1.1,2.1-1.1
	c1.2,0,2.4,0.7,2.4,2v0.2c-0.4-0.2-1.3-0.6-2.4-0.6c-2.2,0-4.5,1.2-4.5,3.5c0,2.1,1.8,3.4,3.9,3.4c1.6,0,2.4-0.7,3-1.5h0.1v1.2h2.3
	v-6C149.6,28.7,147.5,27.2,144.8,27.2L144.8,27.2z M130.4,29.4h-3.3v-5.4h3.3c1.7,0,2.7,1.4,2.7,2.7C133.2,28,132.2,29.4,130.4,29.4
	z M130.4,21.9h-5.6v15.6h2.3v-5.9h3.3c2.6,0,5.1-1.9,5.1-4.8C135.5,23.8,133,21.9,130.4,21.9L130.4,21.9z M99.9,35.8
	c-1.6,0-3-1.3-3-3.2c0-1.9,1.3-3.2,3-3.2c1.6,0,2.8,1.4,2.8,3.2C102.8,34.4,101.5,35.8,99.9,35.8z M102.6,28.4L102.6,28.4
	c-0.6-0.6-1.6-1.2-2.9-1.2c-2.7,0-5.1,2.3-5.1,5.3c0,3,2.4,5.3,5.1,5.3c1.3,0,2.3-0.6,2.8-1.2h0.1v0.8c0,2-1.1,3.1-2.8,3.1
	c-1.4,0-2.3-1-2.7-1.9l-2,0.8c0.6,1.4,2.1,3.1,4.7,3.1c2.7,0,5-1.6,5-5.5v-9.5h-2.2L102.6,28.4z M106.4,37.5h2.3V21.9h-2.3V37.5z
	 M112.2,32.4c-0.1-2.1,1.6-3.1,2.8-3.1c0.9,0,1.7,0.5,2,1.1L112.2,32.4z M119.4,30.6c-0.4-1.2-1.8-3.4-4.5-3.4c-2.7,0-5,2.2-5,5.3
	c0,3,2.3,5.3,5.3,5.3c2.4,0,3.8-1.5,4.4-2.4l-1.8-1.2c-0.6,0.9-1.4,1.5-2.6,1.5c-1.2,0-2-0.5-2.6-1.6l7.1-2.9L119.4,30.6z
	 M62.9,28.9v2.3h5.4c-0.2,1.3-0.6,2.2-1.2,2.8c-0.8,0.8-2,1.6-4.2,1.6c-3.3,0-5.9-2.7-5.9-6s2.6-6,5.9-6c1.8,0,3.1,0.7,4.1,1.6
	l1.6-1.6c-1.3-1.3-3.1-2.3-5.7-2.3c-4.5,0-8.4,3.7-8.4,8.2c0,4.5,3.8,8.2,8.4,8.2c2.5,0,4.3-0.8,5.8-2.3c1.5-1.5,2-3.6,2-5.3
	c0-0.5,0-1-0.1-1.4L62.9,28.9z M76.7,35.8c-1.6,0-3-1.3-3-3.2c0-1.9,1.4-3.2,3-3.2c1.6,0,3,1.3,3,3.2C79.7,34.4,78.3,35.8,76.7,35.8
	z M76.7,27.2c-2.9,0-5.3,2.2-5.3,5.3c0,3.1,2.4,5.3,5.3,5.3c2.9,0,5.3-2.3,5.3-5.3C82,29.5,79.6,27.2,76.7,27.2z M88.3,35.8
	c-1.6,0-3-1.3-3-3.2c0-1.9,1.4-3.2,3-3.2c1.6,0,3,1.3,3,3.2C91.3,34.4,89.9,35.8,88.3,35.8z M88.3,27.2c-2.9,0-5.3,2.2-5.3,5.3
	c0,3.1,2.4,5.3,5.3,5.3c2.9,0,5.3-2.3,5.3-5.3C93.7,29.5,91.3,27.2,88.3,27.2"/>
<path id="path37" class="st1" d="M29.1,24.3L15.8,38.4c0,0,0,0,0,0c0.4,1.5,1.8,2.7,3.5,2.7c0.7,0,1.3-0.2,1.8-0.5l0,0l15-8.6
	L29.1,24.3"/>
<path id="path39" class="st2" d="M42.6,21.9L42.6,21.9l-6.5-3.8l-7.3,6.5l7.3,7.3l6.4-3.7c1.1-0.6,1.9-1.8,1.9-3.2
	C44.4,23.7,43.7,22.5,42.6,21.9"/>
<path id="path41" class="st3" d="M15.8,11.7c-0.1,0.3-0.1,0.6-0.1,0.9v24.9c0,0.3,0,0.6,0.1,0.9l13.8-13.7L15.8,11.7"/>
<path id="path43" class="st4" d="M29.2,25l6.9-6.9L21.1,9.5C20.6,9.2,20,9,19.3,9c-1.7,0-3.1,1.1-3.5,2.7c0,0,0,0,0,0L29.2,25"/>
<path id="path33" class="st5" d="M62.4,12.3h-3.6v0.9h2.7c-0.1,0.7-0.4,1.3-0.9,1.7c-0.5,0.4-1.1,0.6-1.9,0.6
	c-0.8,0-1.5-0.3-2.1-0.9c-0.6-0.6-0.8-1.3-0.8-2.2c0-0.9,0.3-1.6,0.8-2.2c0.6-0.6,1.3-0.8,2.1-0.8c0.4,0,0.8,0.1,1.2,0.2
	c0.4,0.2,0.7,0.4,0.9,0.7l0.7-0.7c-0.3-0.4-0.7-0.6-1.2-0.8c-0.5-0.2-1-0.3-1.6-0.3c-1.1,0-2,0.4-2.8,1.1c-0.8,0.8-1.1,1.7-1.1,2.8
	s0.4,2,1.1,2.8c0.8,0.8,1.7,1.1,2.8,1.1c1.1,0,2.1-0.4,2.8-1.1c0.6-0.6,0.9-1.5,0.9-2.5C62.5,12.7,62.5,12.5,62.4,12.3L62.4,12.3z
	 M63.8,8.8v7.5h4.4v-0.9h-3.4V13h3.1v-0.9h-3.1V9.7h3.4V8.8L63.8,8.8z M74.4,9.7V8.8h-5.2v0.9h2.1v6.6h1V9.7L74.4,9.7z M79.1,8.8h-1
	v7.5h1V8.8z M85.4,9.7V8.8h-5.2v0.9h2.1v6.6h1V9.7L85.4,9.7z M95.2,9.8c-0.7-0.8-1.7-1.1-2.7-1.1c-1.1,0-2,0.4-2.8,1.1
	c-0.7,0.7-1.1,1.7-1.1,2.8s0.4,2,1.1,2.8c0.7,0.8,1.7,1.1,2.8,1.1c1.1,0,2-0.4,2.7-1.1c0.7-0.7,1.1-1.7,1.1-2.8
	C96.3,11.4,95.9,10.5,95.2,9.8z M90.4,10.4c0.6-0.6,1.2-0.8,2.1-0.8c0.8,0,1.5,0.3,2,0.8c0.6,0.6,0.8,1.3,0.8,2.2
	c0,0.9-0.3,1.6-0.8,2.2c-0.5,0.6-1.2,0.9-2,0.9c-0.8,0-1.5-0.3-2.1-0.9c-0.5-0.6-0.8-1.3-0.8-2.2C89.6,11.7,89.8,11,90.4,10.4z
	 M98.6,11.6l0-1.4h0l3.8,6.1h1V8.8h-1v4.4l0,1.4h0l-3.7-5.8h-1.2v7.5h1V11.6z"/>
</svg>
